<svg width="960" height="540" viewBox="0 0 960 540" fill="none" xmlns="http://www.w3.org/2000/svg">
  <defs>
    <!-- Trading Background Gradient -->
    <linearGradient id="tradingBg" x1="0%" y1="0%" x2="100%" y2="100%">
      <stop offset="0%" stop-color="#070a12" />
      <stop offset="50%" stop-color="#0b0f19" />
      <stop offset="100%" stop-color="#080c14" />
    </linearGradient>

    <!-- Glowing Emerald Area Gradient -->
    <linearGradient id="tradingAreaGrad" x1="0%" y1="0%" x2="0%" y2="100%">
      <stop offset="0%" stop-color="#10b981" stop-opacity="0.35" />
      <stop offset="40%" stop-color="#059669" stop-opacity="0.12" />
      <stop offset="90%" stop-color="#047857" stop-opacity="0.02" />
      <stop offset="100%" stop-color="#022c22" stop-opacity="0.0" />
    </linearGradient>

    <!-- Volume Bar Gradients -->
    <linearGradient id="volGreenGrad" x1="0%" y1="0%" x2="0%" y2="100%">
      <stop offset="0%" stop-color="#10b981" stop-opacity="0.85" />
      <stop offset="100%" stop-color="#059669" stop-opacity="0.25" />
    </linearGradient>
    <linearGradient id="volCyanGrad" x1="0%" y1="0%" x2="0%" y2="100%">
      <stop offset="0%" stop-color="#06b6d4" stop-opacity="0.85" />
      <stop offset="100%" stop-color="#0284c7" stop-opacity="0.2" />
    </linearGradient>
  </defs>

  <!-- TERMINAL FRAME BACKGROUND -->
  <rect width="960" height="540" rx="12" fill="url(#tradingBg)" stroke="#1e293b" stroke-width="1.2" />

  <!-- BACKGROUND WATERMARK -->
  <text x="480" y="280" fill="#ffffff" fill-opacity="0.02" font-family="system-ui, -apple-system, sans-serif" font-size="96" font-weight="900" text-anchor="middle" letter-spacing="12">ZYPHUEL</text>
  <text x="480" y="325" fill="#ffffff" fill-opacity="0.015" font-family="monospace, sans-serif" font-size="20" font-weight="700" text-anchor="middle" letter-spacing="8">GIT REPOSITORY INDEX</text>

  <!-- TOP TRADING TICKER HEADER -->
  <g transform="translate(45, 20)">
    <!-- Ticker Symbol & Exchange Identity -->
    <g transform="translate(0, 0)">
      <rect width="28" height="28" rx="6" fill="rgba(16, 185, 129, 0.15)" stroke="rgba(16, 185, 129, 0.35)" stroke-width="1" />
      <text x="14" y="19" fill="#10b981" font-family="system-ui, sans-serif" font-size="14" font-weight="900" text-anchor="middle">⚡</text>
      
      <text x="38" y="14" fill="#f8fafc" font-family="system-ui, -apple-system, sans-serif" font-size="16" font-weight="800" letter-spacing="0.5">ZYP / GIT</text>
      <text x="115" y="14" fill="#64748b" font-family="system-ui, sans-serif" font-size="12" font-weight="600">• GITHUB MAINNET</text>
      <text x="38" y="27" fill="#94a3b8" font-family="system-ui, sans-serif" font-size="10.5">Zyphuel Engineering Velocity • Verified Commit Stream</text>
    </g>

    <!-- Big Price Level & 24H Return -->
    <g transform="translate(360, 0)">
      <text x="0" y="22" fill="#ffffff" font-family="monospace, 'SF Mono', Consolas, sans-serif" font-size="26" font-weight="800">135.00</text>
      <text x="110" y="22" fill="#64748b" font-family="monospace, sans-serif" font-size="13" font-weight="500">COMMITS</text>
      
      <!-- Bullish Change Badge -->
      <rect x="185" y="3" width="135" height="24" rx="12" fill="rgba(16, 185, 129, 0.16)" stroke="rgba(16, 185, 129, 0.4)" stroke-width="1" />
      <text x="252" y="19" fill="#34d399" font-family="system-ui, monospace, sans-serif" font-size="11.5" font-weight="800" text-anchor="middle">▲ +3.8% (24H)</text>
    </g>

    <!-- Timeframe Chips & Live Status -->
    <g transform="translate(735, 2)">
      <!-- Interval selector pills -->
      <rect x="0" y="0" width="28" height="22" rx="4" fill="rgba(255,255,255,0.04)" />
      <text x="14" y="15" fill="#64748b" font-family="monospace, sans-serif" font-size="10" font-weight="700" text-anchor="middle">1D</text>

      <rect x="32" y="0" width="28" height="22" rx="4" fill="rgba(255,255,255,0.04)" />
      <text x="46" y="15" fill="#64748b" font-family="monospace, sans-serif" font-size="10" font-weight="700" text-anchor="middle">1W</text>

      <rect x="64" y="0" width="28" height="22" rx="4" fill="rgba(255,255,255,0.04)" />
      <text x="78" y="15" fill="#64748b" font-family="monospace, sans-serif" font-size="10" font-weight="700" text-anchor="middle">1M</text>

      <rect x="96" y="0" width="28" height="22" rx="4" fill="rgba(255,255,255,0.04)" />
      <text x="110" y="15" fill="#64748b" font-family="monospace, sans-serif" font-size="10" font-weight="700" text-anchor="middle">1Y</text>

      <!-- Active ALL Pill -->
      <rect x="128" y="0" width="38" height="22" rx="4" fill="#10b981" />
      <text x="147" y="15" fill="#ffffff" font-family="monospace, sans-serif" font-size="10" font-weight="800" text-anchor="middle">ALL</text>
    </g>
  </g>

  <!-- TRADING STATS RIBBON (OHLC + Volume + RSI + Sprints) -->
  <g transform="translate(45, 66)">
    <rect width="875" height="28" rx="6" fill="rgba(15, 23, 42, 0.65)" stroke="rgba(255,255,255,0.05)" />
    
    <text x="14" y="18" fill="#94a3b8" font-family="monospace, sans-serif" font-size="10.5">
      <tspan fill="#64748b">O: </tspan><tspan fill="#e2e8f0" font-weight="700">1.00</tspan>
      <tspan fill="#64748b">   H: </tspan><tspan fill="#34d399" font-weight="700">135.00</tspan>
      <tspan fill="#64748b">   L: </tspan><tspan fill="#f87171" font-weight="700">1.00</tspan>
      <tspan fill="#64748b">   C: </tspan><tspan fill="#34d399" font-weight="700">135.00</tspan>
      <tspan fill="#475569">   │   </tspan>
      <tspan fill="#64748b">24H VOL: </tspan><tspan fill="#38bdf8" font-weight="700">5 Commits</tspan>
      <tspan fill="#475569">   │   </tspan>
      <tspan fill="#64748b">EMA(9): </tspan><tspan fill="#fbbf24" font-weight="700">112.7</tspan>
      <tspan fill="#475569">   │   </tspan>
      <tspan fill="#64748b">RSI(14): </tspan><tspan fill="#34d399" font-weight="800">78.4 (BULLISH)</tspan>
      <tspan fill="#475569">   │   </tspan>
      <tspan fill="#64748b">APP: </tspan><tspan fill="#a78bfa" font-weight="700">v2.6.4.0.0.10</tspan>
    </text>

    <!-- Market Live Pulse -->
    <g transform="translate(770, 8)">
      <circle cx="0" cy="6" r="6.5" fill="#10b981" fill-opacity="0.25" />
      <circle cx="0" cy="6" r="3.5" fill="#10b981" />
      <text x="12" y="10" fill="#34d399" font-family="system-ui, sans-serif" font-size="10" font-weight="700">MARKET OPEN</text>
    </g>
  </g>

  <!-- MAIN TRADING CANVAS AREA -->
  <!-- Horizontal Price Gridlines & Right Scale -->
  
      <line x1="55" y1="115.0" x2="865" y2="115.0" stroke="rgba(255, 255, 255, 0.06)" stroke-dasharray="4 4" />
      <text x="877" y="118.5" fill="#64748b" font-family="monospace, 'SF Mono', Consolas, sans-serif" font-size="10" font-weight="600">160.00</text>
    
      <line x1="55" y1="145.6" x2="865" y2="145.6" stroke="rgba(255, 255, 255, 0.06)" stroke-dasharray="4 4" />
      <text x="877" y="149.1" fill="#64748b" font-family="monospace, 'SF Mono', Consolas, sans-serif" font-size="10" font-weight="600">140.00</text>
    
      <line x1="55" y1="176.3" x2="865" y2="176.3" stroke="rgba(255, 255, 255, 0.06)" stroke-dasharray="4 4" />
      <text x="877" y="179.8" fill="#64748b" font-family="monospace, 'SF Mono', Consolas, sans-serif" font-size="10" font-weight="600">120.00</text>
    
      <line x1="55" y1="206.9" x2="865" y2="206.9" stroke="rgba(255, 255, 255, 0.06)" stroke-dasharray="4 4" />
      <text x="877" y="210.4" fill="#64748b" font-family="monospace, 'SF Mono', Consolas, sans-serif" font-size="10" font-weight="600">100.00</text>
    
      <line x1="55" y1="237.5" x2="865" y2="237.5" stroke="rgba(255, 255, 255, 0.06)" stroke-dasharray="4 4" />
      <text x="877" y="241.0" fill="#64748b" font-family="monospace, 'SF Mono', Consolas, sans-serif" font-size="10" font-weight="600">80.00</text>
    
      <line x1="55" y1="268.1" x2="865" y2="268.1" stroke="rgba(255, 255, 255, 0.06)" stroke-dasharray="4 4" />
      <text x="877" y="271.6" fill="#64748b" font-family="monospace, 'SF Mono', Consolas, sans-serif" font-size="10" font-weight="600">60.00</text>
    
      <line x1="55" y1="298.8" x2="865" y2="298.8" stroke="rgba(255, 255, 255, 0.06)" stroke-dasharray="4 4" />
      <text x="877" y="302.3" fill="#64748b" font-family="monospace, 'SF Mono', Consolas, sans-serif" font-size="10" font-weight="600">40.00</text>
    
      <line x1="55" y1="329.4" x2="865" y2="329.4" stroke="rgba(255, 255, 255, 0.06)" stroke-dasharray="4 4" />
      <text x="877" y="332.9" fill="#64748b" font-family="monospace, 'SF Mono', Consolas, sans-serif" font-size="10" font-weight="600">20.00</text>
    
      <line x1="55" y1="360.0" x2="865" y2="360.0" stroke="rgba(255, 255, 255, 0.06)" stroke-dasharray="4 4" />
      <text x="877" y="363.5" fill="#64748b" font-family="monospace, 'SF Mono', Consolas, sans-serif" font-size="10" font-weight="600">0.00</text>
    

  <!-- Vertical Time Gridlines -->
  
      <line x1="55.0" y1="115" x2="55.0" y2="475" stroke="rgba(255, 255, 255, 0.04)" stroke-dasharray="3 4" />
    
      <line x1="174.1" y1="115" x2="174.1" y2="475" stroke="rgba(255, 255, 255, 0.04)" stroke-dasharray="3 4" />
    
      <line x1="293.2" y1="115" x2="293.2" y2="475" stroke="rgba(255, 255, 255, 0.04)" stroke-dasharray="3 4" />
    
      <line x1="412.4" y1="115" x2="412.4" y2="475" stroke="rgba(255, 255, 255, 0.04)" stroke-dasharray="3 4" />
    
      <line x1="531.5" y1="115" x2="531.5" y2="475" stroke="rgba(255, 255, 255, 0.04)" stroke-dasharray="3 4" />
    
      <line x1="650.6" y1="115" x2="650.6" y2="475" stroke="rgba(255, 255, 255, 0.04)" stroke-dasharray="3 4" />
    
      <line x1="769.7" y1="115" x2="769.7" y2="475" stroke="rgba(255, 255, 255, 0.04)" stroke-dasharray="3 4" />
    

  <!-- Area Chart Underlay Gradient -->
  <path d="M 55.0 353.9 C 59.0 353.6, 70.9 353.1, 78.8 352.3 C 86.8 351.6, 94.7 350.0, 102.6 349.3 C 110.6 348.5, 118.5 348.3, 126.5 347.8 C 134.4 347.2, 142.4 347.2, 150.3 346.2 C 158.2 345.2, 166.2 342.6, 174.1 341.6 C 182.1 340.6, 190.0 343.2, 197.9 340.1 C 205.9 337.0, 213.8 326.3, 221.8 323.3 C 229.7 320.2, 237.6 322.5, 245.6 321.7 C 253.5 321.0, 261.5 320.2, 269.4 318.7 C 277.4 317.1, 285.3 314.3, 293.2 312.5 C 301.2 310.7, 309.1 309.0, 317.1 307.9 C 325.0 306.9, 332.9 307.9, 340.9 306.4 C 348.8 304.9, 356.8 300.3, 364.7 298.8 C 372.6 297.2, 380.6 298.2, 388.5 297.2 C 396.5 296.2, 404.4 293.6, 412.4 292.6 C 420.3 291.6, 428.2 291.6, 436.2 291.1 C 444.1 290.6, 452.1 290.3, 460.0 289.6 C 467.9 288.8, 475.9 287.5, 483.8 286.5 C 491.8 285.5, 499.7 284.5, 507.6 283.4 C 515.6 282.4, 523.5 282.7, 531.5 280.4 C 539.4 278.1, 547.4 273.2, 555.3 269.7 C 563.2 266.1, 571.2 263.5, 579.1 258.9 C 587.1 254.3, 595.0 245.2, 602.9 242.1 C 610.9 239.0, 618.8 242.9, 626.8 240.6 C 634.7 238.3, 642.6 231.1, 650.6 228.3 C 658.5 225.5, 666.5 225.5, 674.4 223.7 C 682.4 221.9, 690.3 220.4, 698.2 217.6 C 706.2 214.8, 714.1 210.2, 722.1 206.9 C 730.0 203.6, 737.9 200.2, 745.9 197.7 C 753.8 195.1, 761.8 194.4, 769.7 191.6 C 777.6 188.8, 785.6 184.7, 793.5 180.8 C 801.5 177.0, 809.4 171.9, 817.4 168.6 C 825.3 165.3, 833.2 163.5, 841.2 160.9 C 849.1 158.4, 861.0 154.6, 865.0 153.3 L 865.0 360.0 L 55.0 360.0 Z" fill="url(#tradingAreaGrad)" />

  <!-- EMA 9 Moving Average Trendline (Amber) -->
  <path d="M 55.0 353.9 C 59.0 353.8, 70.9 353.8, 78.8 353.6 C 86.8 353.4, 94.7 353.0, 102.6 352.7 C 110.6 352.4, 118.5 352.1, 126.5 351.7 C 134.4 351.4, 142.4 351.1, 150.3 350.6 C 158.2 350.1, 166.2 349.4, 174.1 348.8 C 182.1 348.2, 190.0 348.2, 197.9 347.1 C 205.9 346.0, 213.8 343.8, 221.8 342.3 C 229.7 340.8, 237.6 339.5, 245.6 338.2 C 253.5 336.9, 261.5 335.7, 269.4 334.3 C 277.4 332.9, 285.3 331.4, 293.2 329.9 C 301.2 328.5, 309.1 326.9, 317.1 325.5 C 325.0 324.2, 332.9 323.1, 340.9 321.7 C 348.8 320.3, 356.8 318.5, 364.7 317.1 C 372.6 315.7, 380.6 314.5, 388.5 313.1 C 396.5 311.8, 404.4 310.3, 412.4 309.0 C 420.3 307.8, 428.2 306.6, 436.2 305.4 C 444.1 304.3, 452.1 303.3, 460.0 302.3 C 467.9 301.2, 475.9 300.2, 483.8 299.1 C 491.8 298.1, 499.7 297.0, 507.6 296.0 C 515.6 294.9, 523.5 294.2, 531.5 292.9 C 539.4 291.6, 547.4 290.0, 555.3 288.2 C 563.2 286.5, 571.2 284.7, 579.1 282.4 C 587.1 280.0, 595.0 276.8, 602.9 274.3 C 610.9 271.8, 618.8 270.0, 626.8 267.6 C 634.7 265.1, 642.6 262.2, 650.6 259.7 C 658.5 257.2, 666.5 254.9, 674.4 252.5 C 682.4 250.1, 690.3 248.0, 698.2 245.5 C 706.2 243.1, 714.1 240.4, 722.1 237.8 C 730.0 235.2, 737.9 232.4, 745.9 229.8 C 753.8 227.2, 761.8 224.8, 769.7 222.1 C 777.6 219.5, 785.6 216.8, 793.5 213.9 C 801.5 211.0, 809.4 207.8, 817.4 204.8 C 825.3 201.8, 833.2 198.9, 841.2 196.0 C 849.1 193.2, 861.0 188.9, 865.0 187.5" fill="none" stroke="#f59e0b" stroke-width="1.8" stroke-dasharray="4 3" opacity="0.85" />

  <!-- Primary Price Line (Layered Emerald Neon Vector Glow) -->
  <path d="M 55.0 353.9 C 59.0 353.6, 70.9 353.1, 78.8 352.3 C 86.8 351.6, 94.7 350.0, 102.6 349.3 C 110.6 348.5, 118.5 348.3, 126.5 347.8 C 134.4 347.2, 142.4 347.2, 150.3 346.2 C 158.2 345.2, 166.2 342.6, 174.1 341.6 C 182.1 340.6, 190.0 343.2, 197.9 340.1 C 205.9 337.0, 213.8 326.3, 221.8 323.3 C 229.7 320.2, 237.6 322.5, 245.6 321.7 C 253.5 321.0, 261.5 320.2, 269.4 318.7 C 277.4 317.1, 285.3 314.3, 293.2 312.5 C 301.2 310.7, 309.1 309.0, 317.1 307.9 C 325.0 306.9, 332.9 307.9, 340.9 306.4 C 348.8 304.9, 356.8 300.3, 364.7 298.8 C 372.6 297.2, 380.6 298.2, 388.5 297.2 C 396.5 296.2, 404.4 293.6, 412.4 292.6 C 420.3 291.6, 428.2 291.6, 436.2 291.1 C 444.1 290.6, 452.1 290.3, 460.0 289.6 C 467.9 288.8, 475.9 287.5, 483.8 286.5 C 491.8 285.5, 499.7 284.5, 507.6 283.4 C 515.6 282.4, 523.5 282.7, 531.5 280.4 C 539.4 278.1, 547.4 273.2, 555.3 269.7 C 563.2 266.1, 571.2 263.5, 579.1 258.9 C 587.1 254.3, 595.0 245.2, 602.9 242.1 C 610.9 239.0, 618.8 242.9, 626.8 240.6 C 634.7 238.3, 642.6 231.1, 650.6 228.3 C 658.5 225.5, 666.5 225.5, 674.4 223.7 C 682.4 221.9, 690.3 220.4, 698.2 217.6 C 706.2 214.8, 714.1 210.2, 722.1 206.9 C 730.0 203.6, 737.9 200.2, 745.9 197.7 C 753.8 195.1, 761.8 194.4, 769.7 191.6 C 777.6 188.8, 785.6 184.7, 793.5 180.8 C 801.5 177.0, 809.4 171.9, 817.4 168.6 C 825.3 165.3, 833.2 163.5, 841.2 160.9 C 849.1 158.4, 861.0 154.6, 865.0 153.3" fill="none" stroke="#10b981" stroke-width="6" stroke-opacity="0.2" stroke-linecap="round" stroke-linejoin="round" />
  <path d="M 55.0 353.9 C 59.0 353.6, 70.9 353.1, 78.8 352.3 C 86.8 351.6, 94.7 350.0, 102.6 349.3 C 110.6 348.5, 118.5 348.3, 126.5 347.8 C 134.4 347.2, 142.4 347.2, 150.3 346.2 C 158.2 345.2, 166.2 342.6, 174.1 341.6 C 182.1 340.6, 190.0 343.2, 197.9 340.1 C 205.9 337.0, 213.8 326.3, 221.8 323.3 C 229.7 320.2, 237.6 322.5, 245.6 321.7 C 253.5 321.0, 261.5 320.2, 269.4 318.7 C 277.4 317.1, 285.3 314.3, 293.2 312.5 C 301.2 310.7, 309.1 309.0, 317.1 307.9 C 325.0 306.9, 332.9 307.9, 340.9 306.4 C 348.8 304.9, 356.8 300.3, 364.7 298.8 C 372.6 297.2, 380.6 298.2, 388.5 297.2 C 396.5 296.2, 404.4 293.6, 412.4 292.6 C 420.3 291.6, 428.2 291.6, 436.2 291.1 C 444.1 290.6, 452.1 290.3, 460.0 289.6 C 467.9 288.8, 475.9 287.5, 483.8 286.5 C 491.8 285.5, 499.7 284.5, 507.6 283.4 C 515.6 282.4, 523.5 282.7, 531.5 280.4 C 539.4 278.1, 547.4 273.2, 555.3 269.7 C 563.2 266.1, 571.2 263.5, 579.1 258.9 C 587.1 254.3, 595.0 245.2, 602.9 242.1 C 610.9 239.0, 618.8 242.9, 626.8 240.6 C 634.7 238.3, 642.6 231.1, 650.6 228.3 C 658.5 225.5, 666.5 225.5, 674.4 223.7 C 682.4 221.9, 690.3 220.4, 698.2 217.6 C 706.2 214.8, 714.1 210.2, 722.1 206.9 C 730.0 203.6, 737.9 200.2, 745.9 197.7 C 753.8 195.1, 761.8 194.4, 769.7 191.6 C 777.6 188.8, 785.6 184.7, 793.5 180.8 C 801.5 177.0, 809.4 171.9, 817.4 168.6 C 825.3 165.3, 833.2 163.5, 841.2 160.9 C 849.1 158.4, 861.0 154.6, 865.0 153.3" fill="none" stroke="#10b981" stroke-width="4" stroke-opacity="0.4" stroke-linecap="round" stroke-linejoin="round" />
  <path d="M 55.0 353.9 C 59.0 353.6, 70.9 353.1, 78.8 352.3 C 86.8 351.6, 94.7 350.0, 102.6 349.3 C 110.6 348.5, 118.5 348.3, 126.5 347.8 C 134.4 347.2, 142.4 347.2, 150.3 346.2 C 158.2 345.2, 166.2 342.6, 174.1 341.6 C 182.1 340.6, 190.0 343.2, 197.9 340.1 C 205.9 337.0, 213.8 326.3, 221.8 323.3 C 229.7 320.2, 237.6 322.5, 245.6 321.7 C 253.5 321.0, 261.5 320.2, 269.4 318.7 C 277.4 317.1, 285.3 314.3, 293.2 312.5 C 301.2 310.7, 309.1 309.0, 317.1 307.9 C 325.0 306.9, 332.9 307.9, 340.9 306.4 C 348.8 304.9, 356.8 300.3, 364.7 298.8 C 372.6 297.2, 380.6 298.2, 388.5 297.2 C 396.5 296.2, 404.4 293.6, 412.4 292.6 C 420.3 291.6, 428.2 291.6, 436.2 291.1 C 444.1 290.6, 452.1 290.3, 460.0 289.6 C 467.9 288.8, 475.9 287.5, 483.8 286.5 C 491.8 285.5, 499.7 284.5, 507.6 283.4 C 515.6 282.4, 523.5 282.7, 531.5 280.4 C 539.4 278.1, 547.4 273.2, 555.3 269.7 C 563.2 266.1, 571.2 263.5, 579.1 258.9 C 587.1 254.3, 595.0 245.2, 602.9 242.1 C 610.9 239.0, 618.8 242.9, 626.8 240.6 C 634.7 238.3, 642.6 231.1, 650.6 228.3 C 658.5 225.5, 666.5 225.5, 674.4 223.7 C 682.4 221.9, 690.3 220.4, 698.2 217.6 C 706.2 214.8, 714.1 210.2, 722.1 206.9 C 730.0 203.6, 737.9 200.2, 745.9 197.7 C 753.8 195.1, 761.8 194.4, 769.7 191.6 C 777.6 188.8, 785.6 184.7, 793.5 180.8 C 801.5 177.0, 809.4 171.9, 817.4 168.6 C 825.3 165.3, 833.2 163.5, 841.2 160.9 C 849.1 158.4, 861.0 154.6, 865.0 153.3" fill="none" stroke="#34d399" stroke-width="2.4" stroke-linecap="round" stroke-linejoin="round" />

  <!-- Genesis Point Marker -->
  <circle cx="55.0" cy="353.9" r="3.5" fill="#047857" stroke="#10b981" stroke-width="1.5" />
  <text x="55.0" y="343.9" fill="#64748b" font-family="monospace, sans-serif" font-size="9" font-weight="700">Genesis</text>

  <!-- Active Latest Point Marker (Clean Bullseye Rings) -->
  <circle cx="865.0" cy="153.3" r="10" fill="#10b981" fill-opacity="0.15" />
  <circle cx="865.0" cy="153.3" r="7" fill="#10b981" fill-opacity="0.35" />
  <circle cx="865.0" cy="153.3" r="4.5" fill="#10b981" stroke="#ffffff" stroke-width="2" />

  <!-- All-Time High (ATH) Milestone Pill -->
  <g transform="translate(823.0, 121.3)">
    <rect width="84" height="20" rx="10" fill="#065f46" stroke="#10b981" stroke-width="1.2" />
    <text x="42" y="13.5" fill="#a7f3d0" font-family="monospace, sans-serif" font-size="9.5" font-weight="800" text-anchor="middle">ATH: 135.00</text>
    <polygon points="42,24 38,20 46,20" fill="#10b981" />
  </g>

  <!-- Crosshair Dashed Line (Drawn from Price Point to Right Axis) -->
  <line x1="55" y1="153.3" x2="870" y2="153.3" stroke="#10b981" stroke-width="1" stroke-dasharray="3 3" opacity="0.65" />

  <!-- Pinned Active Price Tag (Right Y-Axis) -->
  <g transform="translate(871, 142.3)">
    <rect width="66" height="22" rx="4" fill="#10b981" />
    <polygon points="-5,11 0,6 0,16" fill="#10b981" />
    <text x="33" y="15" fill="#ffffff" font-family="monospace, 'SF Mono', Consolas, sans-serif" font-size="11" font-weight="800" text-anchor="middle">135.00 ▲</text>
  </g>

  <!-- TRADING LEGEND (Inline Upper Left of Chart) -->
  <g transform="translate(65, 130)">
    <line x1="0" y1="5" x2="16" y2="5" stroke="#10b981" stroke-width="2.5" />
    <text x="22" y="9" fill="#94a3b8" font-family="system-ui, sans-serif" font-size="10" font-weight="600">ZYP/GIT Price (135.00)</text>

    <line x1="150" y1="5" x2="166" y2="5" stroke="#f59e0b" stroke-width="1.8" stroke-dasharray="3 2" />
    <text x="172" y="9" fill="#94a3b8" font-family="system-ui, sans-serif" font-size="10" font-weight="600">EMA(9) Trendline</text>

    <rect x="280" y="1" width="8" height="8" rx="1.5" fill="#10b981" />
    <text x="294" y="9" fill="#94a3b8" font-family="system-ui, sans-serif" font-size="10" font-weight="600">Vol: Daily Commit Bursts</text>
  </g>

  <!-- SUB-PANEL: TRADING VOLUME HISTOGRAM -->
  <line x1="55" y1="387" x2="865" y2="387" stroke="rgba(255, 255, 255, 0.08)" />
  <text x="55" y="399" fill="#64748b" font-family="monospace, sans-serif" font-size="10" font-weight="700">VOL (Commit Velocity &amp; Code Delivery)</text>
  <text x="877" y="399" fill="#64748b" font-family="monospace, sans-serif" font-size="9.5">11 max</text>
  <text x="877" y="470" fill="#475569" font-family="monospace, sans-serif" font-size="9.5">0</text>

  <!-- Volume Histogram Bars -->
  
      <rect x="47.5" y="445.6" width="15.0" height="24.4" rx="2" fill="url(#volGreenGrad)" stroke="#10b981" stroke-opacity="0.3" stroke-width="0.8" />
    
      <rect x="71.3" y="463.9" width="15.0" height="6.1" rx="2" fill="url(#volCyanGrad)" stroke="#06b6d4" stroke-opacity="0.3" stroke-width="0.8" />
    
      <rect x="95.1" y="457.8" width="15.0" height="12.2" rx="2" fill="url(#volGreenGrad)" stroke="#10b981" stroke-opacity="0.3" stroke-width="0.8" />
    
      <rect x="118.9" y="463.9" width="15.0" height="6.1" rx="2" fill="url(#volCyanGrad)" stroke="#06b6d4" stroke-opacity="0.3" stroke-width="0.8" />
    
      <rect x="142.8" y="463.9" width="15.0" height="6.1" rx="2" fill="url(#volGreenGrad)" stroke="#10b981" stroke-opacity="0.3" stroke-width="0.8" />
    
      <rect x="166.6" y="451.7" width="15.0" height="18.3" rx="2" fill="url(#volGreenGrad)" stroke="#10b981" stroke-opacity="0.3" stroke-width="0.8" />
    
      <rect x="190.4" y="463.9" width="15.0" height="6.1" rx="2" fill="url(#volCyanGrad)" stroke="#06b6d4" stroke-opacity="0.3" stroke-width="0.8" />
    
      <rect x="214.2" y="403.0" width="15.0" height="67.0" rx="2" fill="url(#volGreenGrad)" stroke="#10b981" stroke-opacity="0.3" stroke-width="0.8" />
    
      <rect x="238.1" y="463.9" width="15.0" height="6.1" rx="2" fill="url(#volCyanGrad)" stroke="#06b6d4" stroke-opacity="0.3" stroke-width="0.8" />
    
      <rect x="261.9" y="457.8" width="15.0" height="12.2" rx="2" fill="url(#volGreenGrad)" stroke="#10b981" stroke-opacity="0.3" stroke-width="0.8" />
    
      <rect x="285.7" y="445.6" width="15.0" height="24.4" rx="2" fill="url(#volGreenGrad)" stroke="#10b981" stroke-opacity="0.3" stroke-width="0.8" />
    
      <rect x="309.5" y="451.7" width="15.0" height="18.3" rx="2" fill="url(#volCyanGrad)" stroke="#06b6d4" stroke-opacity="0.3" stroke-width="0.8" />
    
      <rect x="333.4" y="463.9" width="15.0" height="6.1" rx="2" fill="url(#volCyanGrad)" stroke="#06b6d4" stroke-opacity="0.3" stroke-width="0.8" />
    
      <rect x="357.2" y="439.5" width="15.0" height="30.5" rx="2" fill="url(#volGreenGrad)" stroke="#10b981" stroke-opacity="0.3" stroke-width="0.8" />
    
      <rect x="381.0" y="463.9" width="15.0" height="6.1" rx="2" fill="url(#volCyanGrad)" stroke="#06b6d4" stroke-opacity="0.3" stroke-width="0.8" />
    
      <rect x="404.8" y="451.7" width="15.0" height="18.3" rx="2" fill="url(#volGreenGrad)" stroke="#10b981" stroke-opacity="0.3" stroke-width="0.8" />
    
      <rect x="428.7" y="463.9" width="15.0" height="6.1" rx="2" fill="url(#volCyanGrad)" stroke="#06b6d4" stroke-opacity="0.3" stroke-width="0.8" />
    
      <rect x="452.5" y="463.9" width="15.0" height="6.1" rx="2" fill="url(#volGreenGrad)" stroke="#10b981" stroke-opacity="0.3" stroke-width="0.8" />
    
      <rect x="476.3" y="457.8" width="15.0" height="12.2" rx="2" fill="url(#volGreenGrad)" stroke="#10b981" stroke-opacity="0.3" stroke-width="0.8" />
    
      <rect x="500.1" y="457.8" width="15.0" height="12.2" rx="2" fill="url(#volGreenGrad)" stroke="#10b981" stroke-opacity="0.3" stroke-width="0.8" />
    
      <rect x="523.9" y="457.8" width="15.0" height="12.2" rx="2" fill="url(#volGreenGrad)" stroke="#10b981" stroke-opacity="0.3" stroke-width="0.8" />
    
      <rect x="547.8" y="427.4" width="15.0" height="42.6" rx="2" fill="url(#volGreenGrad)" stroke="#10b981" stroke-opacity="0.3" stroke-width="0.8" />
    
      <rect x="571.6" y="427.4" width="15.0" height="42.6" rx="2" fill="url(#volGreenGrad)" stroke="#10b981" stroke-opacity="0.3" stroke-width="0.8" />
    
      <rect x="595.4" y="403.0" width="15.0" height="67.0" rx="2" fill="url(#volGreenGrad)" stroke="#10b981" stroke-opacity="0.3" stroke-width="0.8" />
    
      <rect x="619.2" y="463.9" width="15.0" height="6.1" rx="2" fill="url(#volCyanGrad)" stroke="#06b6d4" stroke-opacity="0.3" stroke-width="0.8" />
    
      <rect x="643.1" y="421.3" width="15.0" height="48.7" rx="2" fill="url(#volGreenGrad)" stroke="#10b981" stroke-opacity="0.3" stroke-width="0.8" />
    
      <rect x="666.9" y="451.7" width="15.0" height="18.3" rx="2" fill="url(#volCyanGrad)" stroke="#06b6d4" stroke-opacity="0.3" stroke-width="0.8" />
    
      <rect x="690.7" y="445.6" width="15.0" height="24.4" rx="2" fill="url(#volGreenGrad)" stroke="#10b981" stroke-opacity="0.3" stroke-width="0.8" />
    
      <rect x="714.5" y="427.4" width="15.0" height="42.6" rx="2" fill="url(#volGreenGrad)" stroke="#10b981" stroke-opacity="0.3" stroke-width="0.8" />
    
      <rect x="738.4" y="433.5" width="15.0" height="36.5" rx="2" fill="url(#volCyanGrad)" stroke="#06b6d4" stroke-opacity="0.3" stroke-width="0.8" />
    
      <rect x="762.2" y="445.6" width="15.0" height="24.4" rx="2" fill="url(#volCyanGrad)" stroke="#06b6d4" stroke-opacity="0.3" stroke-width="0.8" />
    
      <rect x="786.0" y="427.4" width="15.0" height="42.6" rx="2" fill="url(#volGreenGrad)" stroke="#10b981" stroke-opacity="0.3" stroke-width="0.8" />
    
      <rect x="809.8" y="421.3" width="15.0" height="48.7" rx="2" fill="url(#volGreenGrad)" stroke="#10b981" stroke-opacity="0.3" stroke-width="0.8" />
    
      <rect x="833.7" y="439.5" width="15.0" height="30.5" rx="2" fill="url(#volCyanGrad)" stroke="#06b6d4" stroke-opacity="0.3" stroke-width="0.8" />
    
      <rect x="857.5" y="439.5" width="15.0" height="30.5" rx="2" fill="url(#volGreenGrad)" stroke="#10b981" stroke-opacity="0.3" stroke-width="0.8" />
    

  <!-- Time Axis Labels -->
  
      <text x="55.0" y="492" fill="#64748b" font-family="monospace, sans-serif" font-size="10" text-anchor="middle">Jul 11</text>
    
      <text x="174.1" y="492" fill="#64748b" font-family="monospace, sans-serif" font-size="10" text-anchor="middle">Jul 27</text>
    
      <text x="293.2" y="492" fill="#64748b" font-family="monospace, sans-serif" font-size="10" text-anchor="middle">Aug 04</text>
    
      <text x="412.4" y="492" fill="#64748b" font-family="monospace, sans-serif" font-size="10" text-anchor="middle">Aug 27</text>
    
      <text x="531.5" y="492" fill="#64748b" font-family="monospace, sans-serif" font-size="10" text-anchor="middle">Sep 06</text>
    
      <text x="650.6" y="492" fill="#64748b" font-family="monospace, sans-serif" font-size="10" text-anchor="middle">Sep 11</text>
    
      <text x="769.7" y="492" fill="#64748b" font-family="monospace, sans-serif" font-size="10" text-anchor="middle">Sep 16</text>
    
    <text x="865.0" y="492" fill="#38bdf8" font-family="monospace, sans-serif" font-size="10" font-weight="700" text-anchor="end">Sep 20 (Today)</text>
  

  <!-- FOOTER TRADING STATUS BAR -->
  <line x1="45" y1="508" x2="915" y2="508" stroke="rgba(255, 255, 255, 0.08)" />
  
  <g transform="translate(45, 524)">
    <circle cx="4" cy="-3" r="3" fill="#10b981" />
    <text x="14" y="0" fill="#94a3b8" font-family="system-ui, sans-serif" font-size="10.5">
      <tspan font-weight="700" fill="#cbd5e1">ORDER TYPE:</tspan> Continuous Integration &bull; 
      <tspan font-weight="700" fill="#cbd5e1">LATEST HASH:</tspan> <tspan font-family="monospace" fill="#38bdf8">3c385f9</tspan> &bull; 
      <tspan font-weight="700" fill="#cbd5e1">MSG:</tspan> fix(robots): remove non-standard Host ...
    </text>

    <!-- Right Brand Badge -->
    <text x="875" y="0" fill="#38bdf8" font-family="system-ui, sans-serif" font-size="10.5" font-weight="700" text-anchor="end">github.com/daniyal44/Zyphuel</text>
  </g>
</svg>