<?xml version="1.0" encoding="UTF-8"?>
<svg width="960" height="540" viewBox="0 0 960 540" fill="none" xmlns="http://www.w3.org/2000/svg" role="img" aria-label="Zyphuel Git Velocity Trading Chart">
  <defs>
    <!-- Trading Background Gradient -->
    <linearGradient id="tradingBg" x1="0%" y1="0%" x2="100%" y2="100%">
      <stop offset="0%" stop-color="#070a12" />
      <stop offset="50%" stop-color="#0b0f19" />
      <stop offset="100%" stop-color="#080c14" />
    </linearGradient>

    <!-- Glowing Emerald Area Gradient -->
    <linearGradient id="tradingAreaGrad" x1="0%" y1="0%" x2="0%" y2="100%">
      <stop offset="0%" stop-color="#10b981" stop-opacity="0.35" />
      <stop offset="40%" stop-color="#059669" stop-opacity="0.12" />
      <stop offset="90%" stop-color="#047857" stop-opacity="0.02" />
      <stop offset="100%" stop-color="#022c22" stop-opacity="0.0" />
    </linearGradient>

    <!-- Volume Bar Gradients -->
    <linearGradient id="volGreenGrad" x1="0%" y1="0%" x2="0%" y2="100%">
      <stop offset="0%" stop-color="#10b981" stop-opacity="0.85" />
      <stop offset="100%" stop-color="#059669" stop-opacity="0.25" />
    </linearGradient>
    <linearGradient id="volCyanGrad" x1="0%" y1="0%" x2="0%" y2="100%">
      <stop offset="0%" stop-color="#06b6d4" stop-opacity="0.85" />
      <stop offset="100%" stop-color="#0284c7" stop-opacity="0.2" />
    </linearGradient>
  </defs>

  <!-- TERMINAL FRAME BACKGROUND -->
  <rect width="960" height="540" rx="12" fill="url(#tradingBg)" stroke="#1e293b" stroke-width="1.2" />

  <!-- BACKGROUND WATERMARK -->
  <text x="480" y="280" fill="#ffffff" fill-opacity="0.02" font-family="system-ui, -apple-system, sans-serif" font-size="96" font-weight="900" text-anchor="middle" letter-spacing="12">ZYPHUEL</text>
  <text x="480" y="325" fill="#ffffff" fill-opacity="0.015" font-family="monospace, sans-serif" font-size="20" font-weight="700" text-anchor="middle" letter-spacing="8">GIT REPOSITORY INDEX</text>

  <!-- TOP TRADING TICKER HEADER -->
  <g transform="translate(45, 20)">
    <!-- Ticker Symbol & Exchange Identity -->
    <g transform="translate(0, 0)">
      <rect width="28" height="28" rx="6" fill="rgba(16, 185, 129, 0.15)" stroke="rgba(16, 185, 129, 0.35)" stroke-width="1" />
      <text x="14" y="19" fill="#10b981" font-family="system-ui, sans-serif" font-size="14" font-weight="900" text-anchor="middle">⚡</text>
      
      <text x="38" y="14" fill="#f8fafc" font-family="system-ui, -apple-system, sans-serif" font-size="16" font-weight="800" letter-spacing="0.5">ZYP / GIT</text>
      <text x="115" y="14" fill="#64748b" font-family="system-ui, sans-serif" font-size="12" font-weight="600">• GITHUB MAINNET</text>
      <text x="38" y="27" fill="#94a3b8" font-family="system-ui, sans-serif" font-size="10.5">Zyphuel Engineering Velocity • Verified Commit Stream</text>
    </g>

    <!-- Big Price Level & 24H Return -->
    <g transform="translate(360, 0)">
      <text x="0" y="22" fill="#ffffff" font-family="monospace, 'SF Mono', Consolas, sans-serif" font-size="26" font-weight="800">162.00</text>
      <text x="110" y="22" fill="#64748b" font-family="monospace, sans-serif" font-size="13" font-weight="500">COMMITS</text>
      
      <!-- Bullish Change Badge -->
      <rect x="185" y="3" width="135" height="24" rx="12" fill="rgba(16, 185, 129, 0.16)" stroke="rgba(16, 185, 129, 0.4)" stroke-width="1" />
      <text x="252" y="19" fill="#34d399" font-family="system-ui, monospace, sans-serif" font-size="11.5" font-weight="800" text-anchor="middle">▲ +0.6% (24H)</text>
    </g>

    <!-- Timeframe Chips & Live Status -->
    <g transform="translate(735, 2)">
      <!-- Interval selector pills -->
      <rect x="0" y="0" width="28" height="22" rx="4" fill="rgba(255,255,255,0.04)" />
      <text x="14" y="15" fill="#64748b" font-family="monospace, sans-serif" font-size="10" font-weight="700" text-anchor="middle">1D</text>

      <rect x="32" y="0" width="28" height="22" rx="4" fill="rgba(255,255,255,0.04)" />
      <text x="46" y="15" fill="#64748b" font-family="monospace, sans-serif" font-size="10" font-weight="700" text-anchor="middle">1W</text>

      <rect x="64" y="0" width="28" height="22" rx="4" fill="rgba(255,255,255,0.04)" />
      <text x="78" y="15" fill="#64748b" font-family="monospace, sans-serif" font-size="10" font-weight="700" text-anchor="middle">1M</text>

      <rect x="96" y="0" width="28" height="22" rx="4" fill="rgba(255,255,255,0.04)" />
      <text x="110" y="15" fill="#64748b" font-family="monospace, sans-serif" font-size="10" font-weight="700" text-anchor="middle">1Y</text>

      <!-- Active ALL Pill -->
      <rect x="128" y="0" width="38" height="22" rx="4" fill="#10b981" />
      <text x="147" y="15" fill="#ffffff" font-family="monospace, sans-serif" font-size="10" font-weight="800" text-anchor="middle">ALL</text>
    </g>
  </g>

  <!-- TRADING STATS RIBBON (OHLC + Volume + RSI + Sprints) -->
  <g transform="translate(45, 66)">
    <rect width="875" height="28" rx="6" fill="rgba(15, 23, 42, 0.65)" stroke="rgba(255,255,255,0.05)" />
    
    <text x="14" y="18" fill="#94a3b8" font-family="monospace, sans-serif" font-size="10.5">
      <tspan fill="#64748b">O: </tspan><tspan fill="#e2e8f0" font-weight="700">1.00</tspan>
      <tspan fill="#64748b">   H: </tspan><tspan fill="#34d399" font-weight="700">162.00</tspan>
      <tspan fill="#64748b">   L: </tspan><tspan fill="#f87171" font-weight="700">1.00</tspan>
      <tspan fill="#64748b">   C: </tspan><tspan fill="#34d399" font-weight="700">162.00</tspan>
      <tspan fill="#475569">   │   </tspan>
      <tspan fill="#64748b">24H VOL: </tspan><tspan fill="#38bdf8" font-weight="700">1 Commits</tspan>
      <tspan fill="#475569">   │   </tspan>
      <tspan fill="#64748b">EMA(9): </tspan><tspan fill="#fbbf24" font-weight="700">145.8</tspan>
      <tspan fill="#475569">   │   </tspan>
      <tspan fill="#64748b">RSI(14): </tspan><tspan fill="#34d399" font-weight="800">78.4 (BULLISH)</tspan>
      <tspan fill="#475569">   │   </tspan>
      <tspan fill="#64748b">APP: </tspan><tspan fill="#a78bfa" font-weight="700">v2.6.4.0.0.16</tspan>
    </text>

    <!-- Market Live Pulse -->
    <g transform="translate(770, 8)">
      <circle cx="0" cy="6" r="6.5" fill="#10b981" fill-opacity="0.25" />
      <circle cx="0" cy="6" r="3.5" fill="#10b981" />
      <text x="12" y="10" fill="#34d399" font-family="system-ui, sans-serif" font-size="10" font-weight="700">MARKET OPEN</text>
    </g>
  </g>

  <!-- MAIN TRADING CANVAS AREA -->
  <!-- Horizontal Price Gridlines & Right Scale -->
  
      <line x1="55" y1="115.0" x2="865" y2="115.0" stroke="rgba(255, 255, 255, 0.06)" stroke-dasharray="4 4" />
      <text x="877" y="118.5" fill="#64748b" font-family="monospace, 'SF Mono', Consolas, sans-serif" font-size="10" font-weight="600">180.00</text>
    
      <line x1="55" y1="142.2" x2="865" y2="142.2" stroke="rgba(255, 255, 255, 0.06)" stroke-dasharray="4 4" />
      <text x="877" y="145.7" fill="#64748b" font-family="monospace, 'SF Mono', Consolas, sans-serif" font-size="10" font-weight="600">160.00</text>
    
      <line x1="55" y1="169.4" x2="865" y2="169.4" stroke="rgba(255, 255, 255, 0.06)" stroke-dasharray="4 4" />
      <text x="877" y="172.9" fill="#64748b" font-family="monospace, 'SF Mono', Consolas, sans-serif" font-size="10" font-weight="600">140.00</text>
    
      <line x1="55" y1="196.7" x2="865" y2="196.7" stroke="rgba(255, 255, 255, 0.06)" stroke-dasharray="4 4" />
      <text x="877" y="200.2" fill="#64748b" font-family="monospace, 'SF Mono', Consolas, sans-serif" font-size="10" font-weight="600">120.00</text>
    
      <line x1="55" y1="223.9" x2="865" y2="223.9" stroke="rgba(255, 255, 255, 0.06)" stroke-dasharray="4 4" />
      <text x="877" y="227.4" fill="#64748b" font-family="monospace, 'SF Mono', Consolas, sans-serif" font-size="10" font-weight="600">100.00</text>
    
      <line x1="55" y1="251.1" x2="865" y2="251.1" stroke="rgba(255, 255, 255, 0.06)" stroke-dasharray="4 4" />
      <text x="877" y="254.6" fill="#64748b" font-family="monospace, 'SF Mono', Consolas, sans-serif" font-size="10" font-weight="600">80.00</text>
    
      <line x1="55" y1="278.3" x2="865" y2="278.3" stroke="rgba(255, 255, 255, 0.06)" stroke-dasharray="4 4" />
      <text x="877" y="281.8" fill="#64748b" font-family="monospace, 'SF Mono', Consolas, sans-serif" font-size="10" font-weight="600">60.00</text>
    
      <line x1="55" y1="305.6" x2="865" y2="305.6" stroke="rgba(255, 255, 255, 0.06)" stroke-dasharray="4 4" />
      <text x="877" y="309.1" fill="#64748b" font-family="monospace, 'SF Mono', Consolas, sans-serif" font-size="10" font-weight="600">40.00</text>
    
      <line x1="55" y1="332.8" x2="865" y2="332.8" stroke="rgba(255, 255, 255, 0.06)" stroke-dasharray="4 4" />
      <text x="877" y="336.3" fill="#64748b" font-family="monospace, 'SF Mono', Consolas, sans-serif" font-size="10" font-weight="600">20.00</text>
    
      <line x1="55" y1="360.0" x2="865" y2="360.0" stroke="rgba(255, 255, 255, 0.06)" stroke-dasharray="4 4" />
      <text x="877" y="363.5" fill="#64748b" font-family="monospace, 'SF Mono', Consolas, sans-serif" font-size="10" font-weight="600">0.00</text>
    

  <!-- Vertical Time Gridlines -->
  
      <line x1="55.0" y1="115" x2="55.0" y2="475" stroke="rgba(255, 255, 255, 0.04)" stroke-dasharray="3 4" />
    
      <line x1="176.5" y1="115" x2="176.5" y2="475" stroke="rgba(255, 255, 255, 0.04)" stroke-dasharray="3 4" />
    
      <line x1="298.0" y1="115" x2="298.0" y2="475" stroke="rgba(255, 255, 255, 0.04)" stroke-dasharray="3 4" />
    
      <line x1="419.5" y1="115" x2="419.5" y2="475" stroke="rgba(255, 255, 255, 0.04)" stroke-dasharray="3 4" />
    
      <line x1="541.0" y1="115" x2="541.0" y2="475" stroke="rgba(255, 255, 255, 0.04)" stroke-dasharray="3 4" />
    
      <line x1="662.5" y1="115" x2="662.5" y2="475" stroke="rgba(255, 255, 255, 0.04)" stroke-dasharray="3 4" />
    
      <line x1="784.0" y1="115" x2="784.0" y2="475" stroke="rgba(255, 255, 255, 0.04)" stroke-dasharray="3 4" />
    

  <!-- Area Chart Underlay Gradient -->
  <path d="M 55.0 354.6 C 58.4 354.3, 68.5 353.9, 75.3 353.2 C 82.0 352.5, 88.8 351.2, 95.5 350.5 C 102.3 349.8, 109.0 349.6, 115.8 349.1 C 122.5 348.7, 129.3 348.7, 136.0 347.8 C 142.8 346.8, 149.5 344.6, 156.3 343.7 C 163.0 342.8, 169.8 345.0, 176.5 342.3 C 183.3 339.6, 190.0 330.1, 196.8 327.3 C 203.5 324.6, 210.3 326.7, 217.0 326.0 C 223.8 325.3, 230.5 324.6, 237.3 323.3 C 244.0 321.9, 250.8 319.4, 257.5 317.8 C 264.3 316.2, 271.0 314.6, 277.8 313.7 C 284.5 312.8, 291.3 313.7, 298.0 312.4 C 304.8 311.0, 311.5 306.9, 318.3 305.6 C 325.0 304.2, 331.8 305.1, 338.5 304.2 C 345.3 303.3, 352.0 301.0, 358.8 300.1 C 365.5 299.2, 372.3 299.2, 379.0 298.8 C 385.8 298.3, 392.5 298.1, 399.3 297.4 C 406.0 296.7, 412.8 295.6, 419.5 294.7 C 426.3 293.8, 433.0 292.9, 439.8 291.9 C 446.5 291.0, 453.3 291.3, 460.0 289.2 C 466.8 287.2, 473.5 282.9, 480.3 279.7 C 487.0 276.5, 493.8 274.3, 500.5 270.2 C 507.3 266.1, 514.0 257.9, 520.8 255.2 C 527.5 252.5, 534.3 255.9, 541.0 253.8 C 547.8 251.8, 554.5 245.4, 561.3 242.9 C 568.0 240.4, 574.8 240.4, 581.5 238.9 C 588.3 237.3, 595.0 235.9, 601.8 233.4 C 608.5 230.9, 615.3 226.8, 622.0 223.9 C 628.8 220.9, 635.5 218.0, 642.3 215.7 C 649.0 213.5, 655.8 212.8, 662.5 210.3 C 669.3 207.8, 676.0 204.2, 682.8 200.8 C 689.5 197.3, 696.3 192.8, 703.0 189.9 C 709.8 186.9, 716.5 186.2, 723.3 183.1 C 730.0 179.9, 736.8 175.1, 743.5 170.8 C 750.3 166.5, 757.0 159.9, 763.8 157.2 C 770.5 154.5, 777.3 155.6, 784.0 154.5 C 790.8 153.3, 797.5 151.5, 804.3 150.4 C 811.0 149.3, 817.8 149.3, 824.5 147.7 C 831.3 146.1, 838.0 142.2, 844.8 140.9 C 851.5 139.5, 861.6 139.7, 865.0 139.5 L 865.0 360.0 L 55.0 360.0 Z" fill="url(#tradingAreaGrad)" />

  <!-- EMA 9 Moving Average Trendline (Amber) -->
  <path d="M 55.0 354.6 C 58.4 354.5, 68.5 354.5, 75.3 354.3 C 82.0 354.1, 88.8 353.8, 95.5 353.5 C 102.3 353.2, 109.0 352.9, 115.8 352.6 C 122.5 352.3, 129.3 352.1, 136.0 351.7 C 142.8 351.2, 149.5 350.6, 156.3 350.1 C 163.0 349.5, 169.8 349.5, 176.5 348.5 C 183.3 347.5, 190.0 345.6, 196.8 344.3 C 203.5 343.0, 210.3 341.8, 217.0 340.6 C 223.8 339.4, 230.5 338.4, 237.3 337.1 C 244.0 335.9, 250.8 334.6, 257.5 333.3 C 264.3 332.0, 271.0 330.6, 277.8 329.4 C 284.5 328.1, 291.3 327.2, 298.0 326.0 C 304.8 324.7, 311.5 323.2, 318.3 321.9 C 325.0 320.6, 331.8 319.5, 338.5 318.3 C 345.3 317.1, 352.0 315.8, 358.8 314.7 C 365.5 313.6, 372.3 312.5, 379.0 311.5 C 385.8 310.5, 392.5 309.6, 399.3 308.7 C 406.0 307.7, 412.8 306.8, 419.5 305.9 C 426.3 304.9, 433.0 304.0, 439.8 303.1 C 446.5 302.2, 453.3 301.5, 460.0 300.3 C 466.8 299.2, 473.5 297.7, 480.3 296.2 C 487.0 294.6, 493.8 293.0, 500.5 291.0 C 507.3 288.9, 514.0 286.0, 520.8 283.8 C 527.5 281.6, 534.3 280.0, 541.0 277.8 C 547.8 275.7, 554.5 273.1, 561.3 270.9 C 568.0 268.6, 574.8 266.6, 581.5 264.5 C 588.3 262.4, 595.0 260.4, 601.8 258.2 C 608.5 256.1, 615.3 253.7, 622.0 251.4 C 628.8 249.0, 635.5 246.6, 642.3 244.2 C 649.0 241.9, 655.8 239.8, 662.5 237.5 C 669.3 235.1, 676.0 232.7, 682.8 230.1 C 689.5 227.5, 696.3 224.7, 703.0 222.1 C 709.8 219.4, 716.5 217.0, 723.3 214.3 C 730.0 211.5, 736.8 208.6, 743.5 205.6 C 750.3 202.5, 757.0 198.9, 763.8 195.9 C 770.5 192.9, 777.3 190.2, 784.0 187.6 C 790.8 185.0, 797.5 182.5, 804.3 180.2 C 811.0 177.8, 817.8 175.8, 824.5 173.7 C 831.3 171.5, 838.0 169.1, 844.8 167.1 C 851.5 165.1, 861.6 162.5, 865.0 161.6" fill="none" stroke="#f59e0b" stroke-width="1.8" stroke-dasharray="4 3" opacity="0.85" />

  <!-- Primary Price Line (Layered Emerald Neon Vector Glow) -->
  <path d="M 55.0 354.6 C 58.4 354.3, 68.5 353.9, 75.3 353.2 C 82.0 352.5, 88.8 351.2, 95.5 350.5 C 102.3 349.8, 109.0 349.6, 115.8 349.1 C 122.5 348.7, 129.3 348.7, 136.0 347.8 C 142.8 346.8, 149.5 344.6, 156.3 343.7 C 163.0 342.8, 169.8 345.0, 176.5 342.3 C 183.3 339.6, 190.0 330.1, 196.8 327.3 C 203.5 324.6, 210.3 326.7, 217.0 326.0 C 223.8 325.3, 230.5 324.6, 237.3 323.3 C 244.0 321.9, 250.8 319.4, 257.5 317.8 C 264.3 316.2, 271.0 314.6, 277.8 313.7 C 284.5 312.8, 291.3 313.7, 298.0 312.4 C 304.8 311.0, 311.5 306.9, 318.3 305.6 C 325.0 304.2, 331.8 305.1, 338.5 304.2 C 345.3 303.3, 352.0 301.0, 358.8 300.1 C 365.5 299.2, 372.3 299.2, 379.0 298.8 C 385.8 298.3, 392.5 298.1, 399.3 297.4 C 406.0 296.7, 412.8 295.6, 419.5 294.7 C 426.3 293.8, 433.0 292.9, 439.8 291.9 C 446.5 291.0, 453.3 291.3, 460.0 289.2 C 466.8 287.2, 473.5 282.9, 480.3 279.7 C 487.0 276.5, 493.8 274.3, 500.5 270.2 C 507.3 266.1, 514.0 257.9, 520.8 255.2 C 527.5 252.5, 534.3 255.9, 541.0 253.8 C 547.8 251.8, 554.5 245.4, 561.3 242.9 C 568.0 240.4, 574.8 240.4, 581.5 238.9 C 588.3 237.3, 595.0 235.9, 601.8 233.4 C 608.5 230.9, 615.3 226.8, 622.0 223.9 C 628.8 220.9, 635.5 218.0, 642.3 215.7 C 649.0 213.5, 655.8 212.8, 662.5 210.3 C 669.3 207.8, 676.0 204.2, 682.8 200.8 C 689.5 197.3, 696.3 192.8, 703.0 189.9 C 709.8 186.9, 716.5 186.2, 723.3 183.1 C 730.0 179.9, 736.8 175.1, 743.5 170.8 C 750.3 166.5, 757.0 159.9, 763.8 157.2 C 770.5 154.5, 777.3 155.6, 784.0 154.5 C 790.8 153.3, 797.5 151.5, 804.3 150.4 C 811.0 149.3, 817.8 149.3, 824.5 147.7 C 831.3 146.1, 838.0 142.2, 844.8 140.9 C 851.5 139.5, 861.6 139.7, 865.0 139.5" fill="none" stroke="#10b981" stroke-width="6" stroke-opacity="0.2" stroke-linecap="round" stroke-linejoin="round" />
  <path d="M 55.0 354.6 C 58.4 354.3, 68.5 353.9, 75.3 353.2 C 82.0 352.5, 88.8 351.2, 95.5 350.5 C 102.3 349.8, 109.0 349.6, 115.8 349.1 C 122.5 348.7, 129.3 348.7, 136.0 347.8 C 142.8 346.8, 149.5 344.6, 156.3 343.7 C 163.0 342.8, 169.8 345.0, 176.5 342.3 C 183.3 339.6, 190.0 330.1, 196.8 327.3 C 203.5 324.6, 210.3 326.7, 217.0 326.0 C 223.8 325.3, 230.5 324.6, 237.3 323.3 C 244.0 321.9, 250.8 319.4, 257.5 317.8 C 264.3 316.2, 271.0 314.6, 277.8 313.7 C 284.5 312.8, 291.3 313.7, 298.0 312.4 C 304.8 311.0, 311.5 306.9, 318.3 305.6 C 325.0 304.2, 331.8 305.1, 338.5 304.2 C 345.3 303.3, 352.0 301.0, 358.8 300.1 C 365.5 299.2, 372.3 299.2, 379.0 298.8 C 385.8 298.3, 392.5 298.1, 399.3 297.4 C 406.0 296.7, 412.8 295.6, 419.5 294.7 C 426.3 293.8, 433.0 292.9, 439.8 291.9 C 446.5 291.0, 453.3 291.3, 460.0 289.2 C 466.8 287.2, 473.5 282.9, 480.3 279.7 C 487.0 276.5, 493.8 274.3, 500.5 270.2 C 507.3 266.1, 514.0 257.9, 520.8 255.2 C 527.5 252.5, 534.3 255.9, 541.0 253.8 C 547.8 251.8, 554.5 245.4, 561.3 242.9 C 568.0 240.4, 574.8 240.4, 581.5 238.9 C 588.3 237.3, 595.0 235.9, 601.8 233.4 C 608.5 230.9, 615.3 226.8, 622.0 223.9 C 628.8 220.9, 635.5 218.0, 642.3 215.7 C 649.0 213.5, 655.8 212.8, 662.5 210.3 C 669.3 207.8, 676.0 204.2, 682.8 200.8 C 689.5 197.3, 696.3 192.8, 703.0 189.9 C 709.8 186.9, 716.5 186.2, 723.3 183.1 C 730.0 179.9, 736.8 175.1, 743.5 170.8 C 750.3 166.5, 757.0 159.9, 763.8 157.2 C 770.5 154.5, 777.3 155.6, 784.0 154.5 C 790.8 153.3, 797.5 151.5, 804.3 150.4 C 811.0 149.3, 817.8 149.3, 824.5 147.7 C 831.3 146.1, 838.0 142.2, 844.8 140.9 C 851.5 139.5, 861.6 139.7, 865.0 139.5" fill="none" stroke="#10b981" stroke-width="4" stroke-opacity="0.4" stroke-linecap="round" stroke-linejoin="round" />
  <path d="M 55.0 354.6 C 58.4 354.3, 68.5 353.9, 75.3 353.2 C 82.0 352.5, 88.8 351.2, 95.5 350.5 C 102.3 349.8, 109.0 349.6, 115.8 349.1 C 122.5 348.7, 129.3 348.7, 136.0 347.8 C 142.8 346.8, 149.5 344.6, 156.3 343.7 C 163.0 342.8, 169.8 345.0, 176.5 342.3 C 183.3 339.6, 190.0 330.1, 196.8 327.3 C 203.5 324.6, 210.3 326.7, 217.0 326.0 C 223.8 325.3, 230.5 324.6, 237.3 323.3 C 244.0 321.9, 250.8 319.4, 257.5 317.8 C 264.3 316.2, 271.0 314.6, 277.8 313.7 C 284.5 312.8, 291.3 313.7, 298.0 312.4 C 304.8 311.0, 311.5 306.9, 318.3 305.6 C 325.0 304.2, 331.8 305.1, 338.5 304.2 C 345.3 303.3, 352.0 301.0, 358.8 300.1 C 365.5 299.2, 372.3 299.2, 379.0 298.8 C 385.8 298.3, 392.5 298.1, 399.3 297.4 C 406.0 296.7, 412.8 295.6, 419.5 294.7 C 426.3 293.8, 433.0 292.9, 439.8 291.9 C 446.5 291.0, 453.3 291.3, 460.0 289.2 C 466.8 287.2, 473.5 282.9, 480.3 279.7 C 487.0 276.5, 493.8 274.3, 500.5 270.2 C 507.3 266.1, 514.0 257.9, 520.8 255.2 C 527.5 252.5, 534.3 255.9, 541.0 253.8 C 547.8 251.8, 554.5 245.4, 561.3 242.9 C 568.0 240.4, 574.8 240.4, 581.5 238.9 C 588.3 237.3, 595.0 235.9, 601.8 233.4 C 608.5 230.9, 615.3 226.8, 622.0 223.9 C 628.8 220.9, 635.5 218.0, 642.3 215.7 C 649.0 213.5, 655.8 212.8, 662.5 210.3 C 669.3 207.8, 676.0 204.2, 682.8 200.8 C 689.5 197.3, 696.3 192.8, 703.0 189.9 C 709.8 186.9, 716.5 186.2, 723.3 183.1 C 730.0 179.9, 736.8 175.1, 743.5 170.8 C 750.3 166.5, 757.0 159.9, 763.8 157.2 C 770.5 154.5, 777.3 155.6, 784.0 154.5 C 790.8 153.3, 797.5 151.5, 804.3 150.4 C 811.0 149.3, 817.8 149.3, 824.5 147.7 C 831.3 146.1, 838.0 142.2, 844.8 140.9 C 851.5 139.5, 861.6 139.7, 865.0 139.5" fill="none" stroke="#34d399" stroke-width="2.4" stroke-linecap="round" stroke-linejoin="round" />

  <!-- Genesis Point Marker -->
  <circle cx="55.0" cy="354.6" r="3.5" fill="#047857" stroke="#10b981" stroke-width="1.5" />
  <text x="55.0" y="344.6" fill="#64748b" font-family="monospace, sans-serif" font-size="9" font-weight="700">Genesis</text>

  <!-- Active Latest Point Marker (Clean Bullseye Rings) -->
  <circle cx="865.0" cy="139.5" r="10" fill="#10b981" fill-opacity="0.15" />
  <circle cx="865.0" cy="139.5" r="7" fill="#10b981" fill-opacity="0.35" />
  <circle cx="865.0" cy="139.5" r="4.5" fill="#10b981" stroke="#ffffff" stroke-width="2" />

  <!-- All-Time High (ATH) Milestone Pill -->
  <g transform="translate(823.0, 107.5)">
    <rect width="84" height="20" rx="10" fill="#065f46" stroke="#10b981" stroke-width="1.2" />
    <text x="42" y="13.5" fill="#a7f3d0" font-family="monospace, sans-serif" font-size="9.5" font-weight="800" text-anchor="middle">ATH: 162.00</text>
    <polygon points="42,24 38,20 46,20" fill="#10b981" />
  </g>

  <!-- Crosshair Dashed Line (Drawn from Price Point to Right Axis) -->
  <line x1="55" y1="139.5" x2="870" y2="139.5" stroke="#10b981" stroke-width="1" stroke-dasharray="3 3" opacity="0.65" />

  <!-- Pinned Active Price Tag (Right Y-Axis) -->
  <g transform="translate(871, 128.5)">
    <rect width="66" height="22" rx="4" fill="#10b981" />
    <polygon points="-5,11 0,6 0,16" fill="#10b981" />
    <text x="33" y="15" fill="#ffffff" font-family="monospace, 'SF Mono', Consolas, sans-serif" font-size="11" font-weight="800" text-anchor="middle">162.00 ▲</text>
  </g>

  <!-- TRADING LEGEND (Inline Upper Left of Chart) -->
  <g transform="translate(65, 130)">
    <line x1="0" y1="5" x2="16" y2="5" stroke="#10b981" stroke-width="2.5" />
    <text x="22" y="9" fill="#94a3b8" font-family="system-ui, sans-serif" font-size="10" font-weight="600">ZYP/GIT Price (162.00)</text>

    <line x1="150" y1="5" x2="166" y2="5" stroke="#f59e0b" stroke-width="1.8" stroke-dasharray="3 2" />
    <text x="172" y="9" fill="#94a3b8" font-family="system-ui, sans-serif" font-size="10" font-weight="600">EMA(9) Trendline</text>

    <rect x="280" y="1" width="8" height="8" rx="1.5" fill="#10b981" />
    <text x="294" y="9" fill="#94a3b8" font-family="system-ui, sans-serif" font-size="10" font-weight="600">Vol: Daily Commit Bursts</text>
  </g>

  <!-- SUB-PANEL: TRADING VOLUME HISTOGRAM -->
  <line x1="55" y1="387" x2="865" y2="387" stroke="rgba(255, 255, 255, 0.08)" />
  <text x="55" y="399" fill="#64748b" font-family="monospace, sans-serif" font-size="10" font-weight="700">VOL (Commit Velocity &amp; Code Delivery)</text>
  <text x="877" y="399" fill="#64748b" font-family="monospace, sans-serif" font-size="9.5">11 max</text>
  <text x="877" y="470" fill="#475569" font-family="monospace, sans-serif" font-size="9.5">0</text>

  <!-- Volume Histogram Bars -->
  
      <rect x="48.6" y="445.6" width="12.8" height="24.4" rx="2" fill="url(#volGreenGrad)" stroke="#10b981" stroke-opacity="0.3" stroke-width="0.8" />
    
      <rect x="68.8" y="463.9" width="12.8" height="6.1" rx="2" fill="url(#volCyanGrad)" stroke="#06b6d4" stroke-opacity="0.3" stroke-width="0.8" />
    
      <rect x="89.1" y="457.8" width="12.8" height="12.2" rx="2" fill="url(#volGreenGrad)" stroke="#10b981" stroke-opacity="0.3" stroke-width="0.8" />
    
      <rect x="109.3" y="463.9" width="12.8" height="6.1" rx="2" fill="url(#volCyanGrad)" stroke="#06b6d4" stroke-opacity="0.3" stroke-width="0.8" />
    
      <rect x="129.6" y="463.9" width="12.8" height="6.1" rx="2" fill="url(#volGreenGrad)" stroke="#10b981" stroke-opacity="0.3" stroke-width="0.8" />
    
      <rect x="149.8" y="451.7" width="12.8" height="18.3" rx="2" fill="url(#volGreenGrad)" stroke="#10b981" stroke-opacity="0.3" stroke-width="0.8" />
    
      <rect x="170.1" y="463.9" width="12.8" height="6.1" rx="2" fill="url(#volCyanGrad)" stroke="#06b6d4" stroke-opacity="0.3" stroke-width="0.8" />
    
      <rect x="190.3" y="403.0" width="12.8" height="67.0" rx="2" fill="url(#volGreenGrad)" stroke="#10b981" stroke-opacity="0.3" stroke-width="0.8" />
    
      <rect x="210.6" y="463.9" width="12.8" height="6.1" rx="2" fill="url(#volCyanGrad)" stroke="#06b6d4" stroke-opacity="0.3" stroke-width="0.8" />
    
      <rect x="230.8" y="457.8" width="12.8" height="12.2" rx="2" fill="url(#volGreenGrad)" stroke="#10b981" stroke-opacity="0.3" stroke-width="0.8" />
    
      <rect x="251.1" y="445.6" width="12.8" height="24.4" rx="2" fill="url(#volGreenGrad)" stroke="#10b981" stroke-opacity="0.3" stroke-width="0.8" />
    
      <rect x="271.3" y="451.7" width="12.8" height="18.3" rx="2" fill="url(#volCyanGrad)" stroke="#06b6d4" stroke-opacity="0.3" stroke-width="0.8" />
    
      <rect x="291.6" y="463.9" width="12.8" height="6.1" rx="2" fill="url(#volCyanGrad)" stroke="#06b6d4" stroke-opacity="0.3" stroke-width="0.8" />
    
      <rect x="311.8" y="439.5" width="12.8" height="30.5" rx="2" fill="url(#volGreenGrad)" stroke="#10b981" stroke-opacity="0.3" stroke-width="0.8" />
    
      <rect x="332.1" y="463.9" width="12.8" height="6.1" rx="2" fill="url(#volCyanGrad)" stroke="#06b6d4" stroke-opacity="0.3" stroke-width="0.8" />
    
      <rect x="352.3" y="451.7" width="12.8" height="18.3" rx="2" fill="url(#volGreenGrad)" stroke="#10b981" stroke-opacity="0.3" stroke-width="0.8" />
    
      <rect x="372.6" y="463.9" width="12.8" height="6.1" rx="2" fill="url(#volCyanGrad)" stroke="#06b6d4" stroke-opacity="0.3" stroke-width="0.8" />
    
      <rect x="392.8" y="463.9" width="12.8" height="6.1" rx="2" fill="url(#volGreenGrad)" stroke="#10b981" stroke-opacity="0.3" stroke-width="0.8" />
    
      <rect x="413.1" y="457.8" width="12.8" height="12.2" rx="2" fill="url(#volGreenGrad)" stroke="#10b981" stroke-opacity="0.3" stroke-width="0.8" />
    
      <rect x="433.3" y="457.8" width="12.8" height="12.2" rx="2" fill="url(#volGreenGrad)" stroke="#10b981" stroke-opacity="0.3" stroke-width="0.8" />
    
      <rect x="453.6" y="457.8" width="12.8" height="12.2" rx="2" fill="url(#volGreenGrad)" stroke="#10b981" stroke-opacity="0.3" stroke-width="0.8" />
    
      <rect x="473.8" y="427.4" width="12.8" height="42.6" rx="2" fill="url(#volGreenGrad)" stroke="#10b981" stroke-opacity="0.3" stroke-width="0.8" />
    
      <rect x="494.1" y="427.4" width="12.8" height="42.6" rx="2" fill="url(#volGreenGrad)" stroke="#10b981" stroke-opacity="0.3" stroke-width="0.8" />
    
      <rect x="514.3" y="403.0" width="12.8" height="67.0" rx="2" fill="url(#volGreenGrad)" stroke="#10b981" stroke-opacity="0.3" stroke-width="0.8" />
    
      <rect x="534.6" y="463.9" width="12.8" height="6.1" rx="2" fill="url(#volCyanGrad)" stroke="#06b6d4" stroke-opacity="0.3" stroke-width="0.8" />
    
      <rect x="554.8" y="421.3" width="12.8" height="48.7" rx="2" fill="url(#volGreenGrad)" stroke="#10b981" stroke-opacity="0.3" stroke-width="0.8" />
    
      <rect x="575.1" y="451.7" width="12.8" height="18.3" rx="2" fill="url(#volCyanGrad)" stroke="#06b6d4" stroke-opacity="0.3" stroke-width="0.8" />
    
      <rect x="595.3" y="445.6" width="12.8" height="24.4" rx="2" fill="url(#volGreenGrad)" stroke="#10b981" stroke-opacity="0.3" stroke-width="0.8" />
    
      <rect x="615.6" y="427.4" width="12.8" height="42.6" rx="2" fill="url(#volGreenGrad)" stroke="#10b981" stroke-opacity="0.3" stroke-width="0.8" />
    
      <rect x="635.8" y="433.5" width="12.8" height="36.5" rx="2" fill="url(#volCyanGrad)" stroke="#06b6d4" stroke-opacity="0.3" stroke-width="0.8" />
    
      <rect x="656.1" y="445.6" width="12.8" height="24.4" rx="2" fill="url(#volCyanGrad)" stroke="#06b6d4" stroke-opacity="0.3" stroke-width="0.8" />
    
      <rect x="676.3" y="427.4" width="12.8" height="42.6" rx="2" fill="url(#volGreenGrad)" stroke="#10b981" stroke-opacity="0.3" stroke-width="0.8" />
    
      <rect x="696.6" y="421.3" width="12.8" height="48.7" rx="2" fill="url(#volGreenGrad)" stroke="#10b981" stroke-opacity="0.3" stroke-width="0.8" />
    
      <rect x="716.8" y="439.5" width="12.8" height="30.5" rx="2" fill="url(#volCyanGrad)" stroke="#06b6d4" stroke-opacity="0.3" stroke-width="0.8" />
    
      <rect x="737.1" y="415.2" width="12.8" height="54.8" rx="2" fill="url(#volGreenGrad)" stroke="#10b981" stroke-opacity="0.3" stroke-width="0.8" />
    
      <rect x="757.3" y="409.1" width="12.8" height="60.9" rx="2" fill="url(#volGreenGrad)" stroke="#10b981" stroke-opacity="0.3" stroke-width="0.8" />
    
      <rect x="777.6" y="457.8" width="12.8" height="12.2" rx="2" fill="url(#volCyanGrad)" stroke="#06b6d4" stroke-opacity="0.3" stroke-width="0.8" />
    
      <rect x="797.8" y="451.7" width="12.8" height="18.3" rx="2" fill="url(#volGreenGrad)" stroke="#10b981" stroke-opacity="0.3" stroke-width="0.8" />
    
      <rect x="818.1" y="457.8" width="12.8" height="12.2" rx="2" fill="url(#volCyanGrad)" stroke="#06b6d4" stroke-opacity="0.3" stroke-width="0.8" />
    
      <rect x="838.3" y="439.5" width="12.8" height="30.5" rx="2" fill="url(#volGreenGrad)" stroke="#10b981" stroke-opacity="0.3" stroke-width="0.8" />
    
      <rect x="858.6" y="463.9" width="12.8" height="6.1" rx="2" fill="url(#volCyanGrad)" stroke="#06b6d4" stroke-opacity="0.3" stroke-width="0.8" />
    

  <!-- Time Axis Labels -->
  
      <text x="55.0" y="492" fill="#64748b" font-family="monospace, sans-serif" font-size="10" text-anchor="middle">Jul 11</text>
    
      <text x="176.5" y="492" fill="#64748b" font-family="monospace, sans-serif" font-size="10" text-anchor="middle">Jul 29</text>
    
      <text x="298.0" y="492" fill="#64748b" font-family="monospace, sans-serif" font-size="10" text-anchor="middle">Aug 18</text>
    
      <text x="419.5" y="492" fill="#64748b" font-family="monospace, sans-serif" font-size="10" text-anchor="middle">Sep 02</text>
    
      <text x="541.0" y="492" fill="#64748b" font-family="monospace, sans-serif" font-size="10" text-anchor="middle">Sep 10</text>
    
      <text x="662.5" y="492" fill="#64748b" font-family="monospace, sans-serif" font-size="10" text-anchor="middle">Sep 16</text>
    
      <text x="784.0" y="492" fill="#64748b" font-family="monospace, sans-serif" font-size="10" text-anchor="middle">Sep 22</text>
    
    <text x="865.0" y="492" fill="#38bdf8" font-family="monospace, sans-serif" font-size="10" font-weight="700" text-anchor="end">Sep 26 (Today)</text>
  

  <!-- FOOTER TRADING STATUS BAR -->
  <line x1="45" y1="508" x2="915" y2="508" stroke="rgba(255, 255, 255, 0.08)" />
  
  <g transform="translate(45, 524)">
    <circle cx="4" cy="-3" r="3" fill="#10b981" />
    <text x="14" y="0" fill="#94a3b8" font-family="system-ui, sans-serif" font-size="10.5">
      <tspan font-weight="700" fill="#cbd5e1">ORDER TYPE:</tspan> Continuous Integration &bull; 
      <tspan font-weight="700" fill="#cbd5e1">LATEST HASH:</tspan> <tspan font-family="monospace" fill="#38bdf8">5d51ea0</tspan> &bull; 
      <tspan font-weight="700" fill="#cbd5e1">MSG:</tspan> chore(graph): auto-update github commi...
    </text>

    <!-- Right Brand Badge -->
    <text x="875" y="0" fill="#38bdf8" font-family="system-ui, sans-serif" font-size="10.5" font-weight="700" text-anchor="end">github.com/daniyal44/Zyphuel</text>
  </g>
</svg>