<?xml version="1.0" encoding="UTF-8"?>
<svg width="960" height="540" viewBox="0 0 960 540" fill="none" xmlns="http://www.w3.org/2000/svg" role="img" aria-label="Zyphuel Git Velocity Trading Chart">
  <defs>
    <!-- Trading Background Gradient -->
    <linearGradient id="tradingBg" x1="0%" y1="0%" x2="100%" y2="100%">
      <stop offset="0%" stop-color="#070a12" />
      <stop offset="50%" stop-color="#0b0f19" />
      <stop offset="100%" stop-color="#080c14" />
    </linearGradient>

    <!-- Glowing Emerald Area Gradient -->
    <linearGradient id="tradingAreaGrad" x1="0%" y1="0%" x2="0%" y2="100%">
      <stop offset="0%" stop-color="#10b981" stop-opacity="0.35" />
      <stop offset="40%" stop-color="#059669" stop-opacity="0.12" />
      <stop offset="90%" stop-color="#047857" stop-opacity="0.02" />
      <stop offset="100%" stop-color="#022c22" stop-opacity="0.0" />
    </linearGradient>

    <!-- Volume Bar Gradients -->
    <linearGradient id="volGreenGrad" x1="0%" y1="0%" x2="0%" y2="100%">
      <stop offset="0%" stop-color="#10b981" stop-opacity="0.85" />
      <stop offset="100%" stop-color="#059669" stop-opacity="0.25" />
    </linearGradient>
    <linearGradient id="volCyanGrad" x1="0%" y1="0%" x2="0%" y2="100%">
      <stop offset="0%" stop-color="#06b6d4" stop-opacity="0.85" />
      <stop offset="100%" stop-color="#0284c7" stop-opacity="0.2" />
    </linearGradient>
  </defs>

  <!-- TERMINAL FRAME BACKGROUND -->
  <rect width="960" height="540" rx="12" fill="url(#tradingBg)" stroke="#1e293b" stroke-width="1.2" />

  <!-- BACKGROUND WATERMARK -->
  <text x="480" y="280" fill="#ffffff" fill-opacity="0.02" font-family="system-ui, -apple-system, sans-serif" font-size="96" font-weight="900" text-anchor="middle" letter-spacing="12">ZYPHUEL</text>
  <text x="480" y="325" fill="#ffffff" fill-opacity="0.015" font-family="monospace, sans-serif" font-size="20" font-weight="700" text-anchor="middle" letter-spacing="8">GIT REPOSITORY INDEX</text>

  <!-- TOP TRADING TICKER HEADER -->
  <g transform="translate(45, 20)">
    <!-- Ticker Symbol & Exchange Identity -->
    <g transform="translate(0, 0)">
      <rect width="28" height="28" rx="6" fill="rgba(16, 185, 129, 0.15)" stroke="rgba(16, 185, 129, 0.35)" stroke-width="1" />
      <text x="14" y="19" fill="#10b981" font-family="system-ui, sans-serif" font-size="14" font-weight="900" text-anchor="middle">⚡</text>
      
      <text x="38" y="14" fill="#f8fafc" font-family="system-ui, -apple-system, sans-serif" font-size="16" font-weight="800" letter-spacing="0.5">ZYP / GIT</text>
      <text x="115" y="14" fill="#64748b" font-family="system-ui, sans-serif" font-size="12" font-weight="600">• GITHUB MAINNET</text>
      <text x="38" y="27" fill="#94a3b8" font-family="system-ui, sans-serif" font-size="10.5">Zyphuel Engineering Velocity • Verified Commit Stream</text>
    </g>

    <!-- Big Price Level & 24H Return -->
    <g transform="translate(360, 0)">
      <text x="0" y="22" fill="#ffffff" font-family="monospace, 'SF Mono', Consolas, sans-serif" font-size="26" font-weight="800">171.00</text>
      <text x="110" y="22" fill="#64748b" font-family="monospace, sans-serif" font-size="13" font-weight="500">COMMITS</text>
      
      <!-- Bullish Change Badge -->
      <rect x="185" y="3" width="135" height="24" rx="12" fill="rgba(16, 185, 129, 0.16)" stroke="rgba(16, 185, 129, 0.4)" stroke-width="1" />
      <text x="252" y="19" fill="#34d399" font-family="system-ui, monospace, sans-serif" font-size="11.5" font-weight="800" text-anchor="middle">▲ +1.8% (24H)</text>
    </g>

    <!-- Timeframe Chips & Live Status -->
    <g transform="translate(735, 2)">
      <!-- Interval selector pills -->
      <rect x="0" y="0" width="28" height="22" rx="4" fill="rgba(255,255,255,0.04)" />
      <text x="14" y="15" fill="#64748b" font-family="monospace, sans-serif" font-size="10" font-weight="700" text-anchor="middle">1D</text>

      <rect x="32" y="0" width="28" height="22" rx="4" fill="rgba(255,255,255,0.04)" />
      <text x="46" y="15" fill="#64748b" font-family="monospace, sans-serif" font-size="10" font-weight="700" text-anchor="middle">1W</text>

      <rect x="64" y="0" width="28" height="22" rx="4" fill="rgba(255,255,255,0.04)" />
      <text x="78" y="15" fill="#64748b" font-family="monospace, sans-serif" font-size="10" font-weight="700" text-anchor="middle">1M</text>

      <rect x="96" y="0" width="28" height="22" rx="4" fill="rgba(255,255,255,0.04)" />
      <text x="110" y="15" fill="#64748b" font-family="monospace, sans-serif" font-size="10" font-weight="700" text-anchor="middle">1Y</text>

      <!-- Active ALL Pill -->
      <rect x="128" y="0" width="38" height="22" rx="4" fill="#10b981" />
      <text x="147" y="15" fill="#ffffff" font-family="monospace, sans-serif" font-size="10" font-weight="800" text-anchor="middle">ALL</text>
    </g>
  </g>

  <!-- TRADING STATS RIBBON (OHLC + Volume + RSI + Sprints) -->
  <g transform="translate(45, 66)">
    <rect width="875" height="28" rx="6" fill="rgba(15, 23, 42, 0.65)" stroke="rgba(255,255,255,0.05)" />
    
    <text x="14" y="18" fill="#94a3b8" font-family="monospace, sans-serif" font-size="10.5">
      <tspan fill="#64748b">O: </tspan><tspan fill="#e2e8f0" font-weight="700">1.00</tspan>
      <tspan fill="#64748b">   H: </tspan><tspan fill="#34d399" font-weight="700">171.00</tspan>
      <tspan fill="#64748b">   L: </tspan><tspan fill="#f87171" font-weight="700">1.00</tspan>
      <tspan fill="#64748b">   C: </tspan><tspan fill="#34d399" font-weight="700">171.00</tspan>
      <tspan fill="#475569">   │   </tspan>
      <tspan fill="#64748b">24H VOL: </tspan><tspan fill="#38bdf8" font-weight="700">3 Commits</tspan>
      <tspan fill="#475569">   │   </tspan>
      <tspan fill="#64748b">EMA(9): </tspan><tspan fill="#fbbf24" font-weight="700">154.4</tspan>
      <tspan fill="#475569">   │   </tspan>
      <tspan fill="#64748b">RSI(14): </tspan><tspan fill="#34d399" font-weight="800">78.4 (BULLISH)</tspan>
      <tspan fill="#475569">   │   </tspan>
      <tspan fill="#64748b">APP: </tspan><tspan fill="#a78bfa" font-weight="700">v2.6.4.0.0.16</tspan>
    </text>

    <!-- Market Live Pulse -->
    <g transform="translate(770, 8)">
      <circle cx="0" cy="6" r="6.5" fill="#10b981" fill-opacity="0.25" />
      <circle cx="0" cy="6" r="3.5" fill="#10b981" />
      <text x="12" y="10" fill="#34d399" font-family="system-ui, sans-serif" font-size="10" font-weight="700">MARKET OPEN</text>
    </g>
  </g>

  <!-- MAIN TRADING CANVAS AREA -->
  <!-- Horizontal Price Gridlines & Right Scale -->
  
      <line x1="55" y1="115.0" x2="865" y2="115.0" stroke="rgba(255, 255, 255, 0.06)" stroke-dasharray="4 4" />
      <text x="877" y="118.5" fill="#64748b" font-family="monospace, 'SF Mono', Consolas, sans-serif" font-size="10" font-weight="600">180.00</text>
    
      <line x1="55" y1="142.2" x2="865" y2="142.2" stroke="rgba(255, 255, 255, 0.06)" stroke-dasharray="4 4" />
      <text x="877" y="145.7" fill="#64748b" font-family="monospace, 'SF Mono', Consolas, sans-serif" font-size="10" font-weight="600">160.00</text>
    
      <line x1="55" y1="169.4" x2="865" y2="169.4" stroke="rgba(255, 255, 255, 0.06)" stroke-dasharray="4 4" />
      <text x="877" y="172.9" fill="#64748b" font-family="monospace, 'SF Mono', Consolas, sans-serif" font-size="10" font-weight="600">140.00</text>
    
      <line x1="55" y1="196.7" x2="865" y2="196.7" stroke="rgba(255, 255, 255, 0.06)" stroke-dasharray="4 4" />
      <text x="877" y="200.2" fill="#64748b" font-family="monospace, 'SF Mono', Consolas, sans-serif" font-size="10" font-weight="600">120.00</text>
    
      <line x1="55" y1="223.9" x2="865" y2="223.9" stroke="rgba(255, 255, 255, 0.06)" stroke-dasharray="4 4" />
      <text x="877" y="227.4" fill="#64748b" font-family="monospace, 'SF Mono', Consolas, sans-serif" font-size="10" font-weight="600">100.00</text>
    
      <line x1="55" y1="251.1" x2="865" y2="251.1" stroke="rgba(255, 255, 255, 0.06)" stroke-dasharray="4 4" />
      <text x="877" y="254.6" fill="#64748b" font-family="monospace, 'SF Mono', Consolas, sans-serif" font-size="10" font-weight="600">80.00</text>
    
      <line x1="55" y1="278.3" x2="865" y2="278.3" stroke="rgba(255, 255, 255, 0.06)" stroke-dasharray="4 4" />
      <text x="877" y="281.8" fill="#64748b" font-family="monospace, 'SF Mono', Consolas, sans-serif" font-size="10" font-weight="600">60.00</text>
    
      <line x1="55" y1="305.6" x2="865" y2="305.6" stroke="rgba(255, 255, 255, 0.06)" stroke-dasharray="4 4" />
      <text x="877" y="309.1" fill="#64748b" font-family="monospace, 'SF Mono', Consolas, sans-serif" font-size="10" font-weight="600">40.00</text>
    
      <line x1="55" y1="332.8" x2="865" y2="332.8" stroke="rgba(255, 255, 255, 0.06)" stroke-dasharray="4 4" />
      <text x="877" y="336.3" fill="#64748b" font-family="monospace, 'SF Mono', Consolas, sans-serif" font-size="10" font-weight="600">20.00</text>
    
      <line x1="55" y1="360.0" x2="865" y2="360.0" stroke="rgba(255, 255, 255, 0.06)" stroke-dasharray="4 4" />
      <text x="877" y="363.5" fill="#64748b" font-family="monospace, 'SF Mono', Consolas, sans-serif" font-size="10" font-weight="600">0.00</text>
    

  <!-- Vertical Time Gridlines -->
  
      <line x1="55.0" y1="115" x2="55.0" y2="475" stroke="rgba(255, 255, 255, 0.04)" stroke-dasharray="3 4" />
    
      <line x1="190.0" y1="115" x2="190.0" y2="475" stroke="rgba(255, 255, 255, 0.04)" stroke-dasharray="3 4" />
    
      <line x1="325.0" y1="115" x2="325.0" y2="475" stroke="rgba(255, 255, 255, 0.04)" stroke-dasharray="3 4" />
    
      <line x1="460.0" y1="115" x2="460.0" y2="475" stroke="rgba(255, 255, 255, 0.04)" stroke-dasharray="3 4" />
    
      <line x1="595.0" y1="115" x2="595.0" y2="475" stroke="rgba(255, 255, 255, 0.04)" stroke-dasharray="3 4" />
    
      <line x1="730.0" y1="115" x2="730.0" y2="475" stroke="rgba(255, 255, 255, 0.04)" stroke-dasharray="3 4" />
    
      <line x1="865.0" y1="115" x2="865.0" y2="475" stroke="rgba(255, 255, 255, 0.04)" stroke-dasharray="3 4" />
    

  <!-- Area Chart Underlay Gradient -->
  <path d="M 55.0 354.6 C 58.2 354.3, 67.9 353.9, 74.3 353.2 C 80.7 352.5, 87.1 351.2, 93.6 350.5 C 100.0 349.8, 106.4 349.6, 112.9 349.1 C 119.3 348.7, 125.7 348.7, 132.1 347.8 C 138.6 346.8, 145.0 344.6, 151.4 343.7 C 157.9 342.8, 164.3 345.0, 170.7 342.3 C 177.1 339.6, 183.6 330.1, 190.0 327.3 C 196.4 324.6, 202.9 326.7, 209.3 326.0 C 215.7 325.3, 222.1 324.6, 228.6 323.3 C 235.0 321.9, 241.4 319.4, 247.9 317.8 C 254.3 316.2, 260.7 314.6, 267.1 313.7 C 273.6 312.8, 280.0 313.7, 286.4 312.4 C 292.9 311.0, 299.3 306.9, 305.7 305.6 C 312.1 304.2, 318.6 305.1, 325.0 304.2 C 331.4 303.3, 337.9 301.0, 344.3 300.1 C 350.7 299.2, 357.1 299.2, 363.6 298.8 C 370.0 298.3, 376.4 298.1, 382.9 297.4 C 389.3 296.7, 395.7 295.6, 402.1 294.7 C 408.6 293.8, 415.0 292.9, 421.4 291.9 C 427.9 291.0, 434.3 291.3, 440.7 289.2 C 447.1 287.2, 453.6 282.9, 460.0 279.7 C 466.4 276.5, 472.9 274.3, 479.3 270.2 C 485.7 266.1, 492.1 257.9, 498.6 255.2 C 505.0 252.5, 511.4 255.9, 517.9 253.8 C 524.3 251.8, 530.7 245.4, 537.1 242.9 C 543.6 240.4, 550.0 240.4, 556.4 238.9 C 562.9 237.3, 569.3 235.9, 575.7 233.4 C 582.1 230.9, 588.6 226.8, 595.0 223.9 C 601.4 220.9, 607.9 218.0, 614.3 215.7 C 620.7 213.5, 627.1 212.8, 633.6 210.3 C 640.0 207.8, 646.4 204.2, 652.9 200.8 C 659.3 197.3, 665.7 192.8, 672.1 189.9 C 678.6 186.9, 685.0 186.2, 691.4 183.1 C 697.9 179.9, 704.3 175.1, 710.7 170.8 C 717.1 166.5, 723.6 159.9, 730.0 157.2 C 736.4 154.5, 742.9 155.6, 749.3 154.5 C 755.7 153.3, 762.1 151.5, 768.6 150.4 C 775.0 149.3, 781.4 149.3, 787.9 147.7 C 794.3 146.1, 800.7 142.2, 807.1 140.9 C 813.6 139.5, 820.0 141.1, 826.4 139.5 C 832.9 137.9, 839.3 133.4, 845.7 131.3 C 852.1 129.3, 861.8 127.9, 865.0 127.3 L 865.0 360.0 L 55.0 360.0 Z" fill="url(#tradingAreaGrad)" />

  <!-- EMA 9 Moving Average Trendline (Amber) -->
  <path d="M 55.0 354.6 C 58.2 354.5, 67.9 354.5, 74.3 354.3 C 80.7 354.1, 87.1 353.8, 93.6 353.5 C 100.0 353.2, 106.4 352.9, 112.9 352.6 C 119.3 352.3, 125.7 352.1, 132.1 351.7 C 138.6 351.2, 145.0 350.6, 151.4 350.1 C 157.9 349.5, 164.3 349.5, 170.7 348.5 C 177.1 347.5, 183.6 345.6, 190.0 344.3 C 196.4 343.0, 202.9 341.8, 209.3 340.6 C 215.7 339.4, 222.1 338.4, 228.6 337.1 C 235.0 335.9, 241.4 334.6, 247.9 333.3 C 254.3 332.0, 260.7 330.6, 267.1 329.4 C 273.6 328.1, 280.0 327.2, 286.4 326.0 C 292.9 324.7, 299.3 323.2, 305.7 321.9 C 312.1 320.6, 318.6 319.5, 325.0 318.3 C 331.4 317.1, 337.9 315.8, 344.3 314.7 C 350.7 313.6, 357.1 312.5, 363.6 311.5 C 370.0 310.5, 376.4 309.6, 382.9 308.7 C 389.3 307.7, 395.7 306.8, 402.1 305.9 C 408.6 304.9, 415.0 304.0, 421.4 303.1 C 427.9 302.2, 434.3 301.5, 440.7 300.3 C 447.1 299.2, 453.6 297.7, 460.0 296.2 C 466.4 294.6, 472.9 293.0, 479.3 291.0 C 485.7 288.9, 492.1 286.0, 498.6 283.8 C 505.0 281.6, 511.4 280.0, 517.9 277.8 C 524.3 275.7, 530.7 273.1, 537.1 270.9 C 543.6 268.6, 550.0 266.6, 556.4 264.5 C 562.9 262.4, 569.3 260.4, 575.7 258.2 C 582.1 256.1, 588.6 253.7, 595.0 251.4 C 601.4 249.0, 607.9 246.6, 614.3 244.2 C 620.7 241.9, 627.1 239.8, 633.6 237.5 C 640.0 235.1, 646.4 232.7, 652.9 230.1 C 659.3 227.5, 665.7 224.7, 672.1 222.1 C 678.6 219.4, 685.0 217.0, 691.4 214.3 C 697.9 211.5, 704.3 208.6, 710.7 205.6 C 717.1 202.5, 723.6 198.9, 730.0 195.9 C 736.4 192.9, 742.9 190.2, 749.3 187.6 C 755.7 185.0, 762.1 182.5, 768.6 180.2 C 775.0 177.8, 781.4 175.8, 787.9 173.7 C 794.3 171.5, 800.7 169.1, 807.1 167.1 C 813.6 165.1, 820.0 163.5, 826.4 161.6 C 832.9 159.7, 839.3 157.5, 845.7 155.5 C 852.1 153.6, 861.8 150.8, 865.0 149.9" fill="none" stroke="#f59e0b" stroke-width="1.8" stroke-dasharray="4 3" opacity="0.85" />

  <!-- Primary Price Line (Layered Emerald Neon Vector Glow) -->
  <path d="M 55.0 354.6 C 58.2 354.3, 67.9 353.9, 74.3 353.2 C 80.7 352.5, 87.1 351.2, 93.6 350.5 C 100.0 349.8, 106.4 349.6, 112.9 349.1 C 119.3 348.7, 125.7 348.7, 132.1 347.8 C 138.6 346.8, 145.0 344.6, 151.4 343.7 C 157.9 342.8, 164.3 345.0, 170.7 342.3 C 177.1 339.6, 183.6 330.1, 190.0 327.3 C 196.4 324.6, 202.9 326.7, 209.3 326.0 C 215.7 325.3, 222.1 324.6, 228.6 323.3 C 235.0 321.9, 241.4 319.4, 247.9 317.8 C 254.3 316.2, 260.7 314.6, 267.1 313.7 C 273.6 312.8, 280.0 313.7, 286.4 312.4 C 292.9 311.0, 299.3 306.9, 305.7 305.6 C 312.1 304.2, 318.6 305.1, 325.0 304.2 C 331.4 303.3, 337.9 301.0, 344.3 300.1 C 350.7 299.2, 357.1 299.2, 363.6 298.8 C 370.0 298.3, 376.4 298.1, 382.9 297.4 C 389.3 296.7, 395.7 295.6, 402.1 294.7 C 408.6 293.8, 415.0 292.9, 421.4 291.9 C 427.9 291.0, 434.3 291.3, 440.7 289.2 C 447.1 287.2, 453.6 282.9, 460.0 279.7 C 466.4 276.5, 472.9 274.3, 479.3 270.2 C 485.7 266.1, 492.1 257.9, 498.6 255.2 C 505.0 252.5, 511.4 255.9, 517.9 253.8 C 524.3 251.8, 530.7 245.4, 537.1 242.9 C 543.6 240.4, 550.0 240.4, 556.4 238.9 C 562.9 237.3, 569.3 235.9, 575.7 233.4 C 582.1 230.9, 588.6 226.8, 595.0 223.9 C 601.4 220.9, 607.9 218.0, 614.3 215.7 C 620.7 213.5, 627.1 212.8, 633.6 210.3 C 640.0 207.8, 646.4 204.2, 652.9 200.8 C 659.3 197.3, 665.7 192.8, 672.1 189.9 C 678.6 186.9, 685.0 186.2, 691.4 183.1 C 697.9 179.9, 704.3 175.1, 710.7 170.8 C 717.1 166.5, 723.6 159.9, 730.0 157.2 C 736.4 154.5, 742.9 155.6, 749.3 154.5 C 755.7 153.3, 762.1 151.5, 768.6 150.4 C 775.0 149.3, 781.4 149.3, 787.9 147.7 C 794.3 146.1, 800.7 142.2, 807.1 140.9 C 813.6 139.5, 820.0 141.1, 826.4 139.5 C 832.9 137.9, 839.3 133.4, 845.7 131.3 C 852.1 129.3, 861.8 127.9, 865.0 127.3" fill="none" stroke="#10b981" stroke-width="6" stroke-opacity="0.2" stroke-linecap="round" stroke-linejoin="round" />
  <path d="M 55.0 354.6 C 58.2 354.3, 67.9 353.9, 74.3 353.2 C 80.7 352.5, 87.1 351.2, 93.6 350.5 C 100.0 349.8, 106.4 349.6, 112.9 349.1 C 119.3 348.7, 125.7 348.7, 132.1 347.8 C 138.6 346.8, 145.0 344.6, 151.4 343.7 C 157.9 342.8, 164.3 345.0, 170.7 342.3 C 177.1 339.6, 183.6 330.1, 190.0 327.3 C 196.4 324.6, 202.9 326.7, 209.3 326.0 C 215.7 325.3, 222.1 324.6, 228.6 323.3 C 235.0 321.9, 241.4 319.4, 247.9 317.8 C 254.3 316.2, 260.7 314.6, 267.1 313.7 C 273.6 312.8, 280.0 313.7, 286.4 312.4 C 292.9 311.0, 299.3 306.9, 305.7 305.6 C 312.1 304.2, 318.6 305.1, 325.0 304.2 C 331.4 303.3, 337.9 301.0, 344.3 300.1 C 350.7 299.2, 357.1 299.2, 363.6 298.8 C 370.0 298.3, 376.4 298.1, 382.9 297.4 C 389.3 296.7, 395.7 295.6, 402.1 294.7 C 408.6 293.8, 415.0 292.9, 421.4 291.9 C 427.9 291.0, 434.3 291.3, 440.7 289.2 C 447.1 287.2, 453.6 282.9, 460.0 279.7 C 466.4 276.5, 472.9 274.3, 479.3 270.2 C 485.7 266.1, 492.1 257.9, 498.6 255.2 C 505.0 252.5, 511.4 255.9, 517.9 253.8 C 524.3 251.8, 530.7 245.4, 537.1 242.9 C 543.6 240.4, 550.0 240.4, 556.4 238.9 C 562.9 237.3, 569.3 235.9, 575.7 233.4 C 582.1 230.9, 588.6 226.8, 595.0 223.9 C 601.4 220.9, 607.9 218.0, 614.3 215.7 C 620.7 213.5, 627.1 212.8, 633.6 210.3 C 640.0 207.8, 646.4 204.2, 652.9 200.8 C 659.3 197.3, 665.7 192.8, 672.1 189.9 C 678.6 186.9, 685.0 186.2, 691.4 183.1 C 697.9 179.9, 704.3 175.1, 710.7 170.8 C 717.1 166.5, 723.6 159.9, 730.0 157.2 C 736.4 154.5, 742.9 155.6, 749.3 154.5 C 755.7 153.3, 762.1 151.5, 768.6 150.4 C 775.0 149.3, 781.4 149.3, 787.9 147.7 C 794.3 146.1, 800.7 142.2, 807.1 140.9 C 813.6 139.5, 820.0 141.1, 826.4 139.5 C 832.9 137.9, 839.3 133.4, 845.7 131.3 C 852.1 129.3, 861.8 127.9, 865.0 127.3" fill="none" stroke="#10b981" stroke-width="4" stroke-opacity="0.4" stroke-linecap="round" stroke-linejoin="round" />
  <path d="M 55.0 354.6 C 58.2 354.3, 67.9 353.9, 74.3 353.2 C 80.7 352.5, 87.1 351.2, 93.6 350.5 C 100.0 349.8, 106.4 349.6, 112.9 349.1 C 119.3 348.7, 125.7 348.7, 132.1 347.8 C 138.6 346.8, 145.0 344.6, 151.4 343.7 C 157.9 342.8, 164.3 345.0, 170.7 342.3 C 177.1 339.6, 183.6 330.1, 190.0 327.3 C 196.4 324.6, 202.9 326.7, 209.3 326.0 C 215.7 325.3, 222.1 324.6, 228.6 323.3 C 235.0 321.9, 241.4 319.4, 247.9 317.8 C 254.3 316.2, 260.7 314.6, 267.1 313.7 C 273.6 312.8, 280.0 313.7, 286.4 312.4 C 292.9 311.0, 299.3 306.9, 305.7 305.6 C 312.1 304.2, 318.6 305.1, 325.0 304.2 C 331.4 303.3, 337.9 301.0, 344.3 300.1 C 350.7 299.2, 357.1 299.2, 363.6 298.8 C 370.0 298.3, 376.4 298.1, 382.9 297.4 C 389.3 296.7, 395.7 295.6, 402.1 294.7 C 408.6 293.8, 415.0 292.9, 421.4 291.9 C 427.9 291.0, 434.3 291.3, 440.7 289.2 C 447.1 287.2, 453.6 282.9, 460.0 279.7 C 466.4 276.5, 472.9 274.3, 479.3 270.2 C 485.7 266.1, 492.1 257.9, 498.6 255.2 C 505.0 252.5, 511.4 255.9, 517.9 253.8 C 524.3 251.8, 530.7 245.4, 537.1 242.9 C 543.6 240.4, 550.0 240.4, 556.4 238.9 C 562.9 237.3, 569.3 235.9, 575.7 233.4 C 582.1 230.9, 588.6 226.8, 595.0 223.9 C 601.4 220.9, 607.9 218.0, 614.3 215.7 C 620.7 213.5, 627.1 212.8, 633.6 210.3 C 640.0 207.8, 646.4 204.2, 652.9 200.8 C 659.3 197.3, 665.7 192.8, 672.1 189.9 C 678.6 186.9, 685.0 186.2, 691.4 183.1 C 697.9 179.9, 704.3 175.1, 710.7 170.8 C 717.1 166.5, 723.6 159.9, 730.0 157.2 C 736.4 154.5, 742.9 155.6, 749.3 154.5 C 755.7 153.3, 762.1 151.5, 768.6 150.4 C 775.0 149.3, 781.4 149.3, 787.9 147.7 C 794.3 146.1, 800.7 142.2, 807.1 140.9 C 813.6 139.5, 820.0 141.1, 826.4 139.5 C 832.9 137.9, 839.3 133.4, 845.7 131.3 C 852.1 129.3, 861.8 127.9, 865.0 127.3" fill="none" stroke="#34d399" stroke-width="2.4" stroke-linecap="round" stroke-linejoin="round" />

  <!-- Genesis Point Marker -->
  <circle cx="55.0" cy="354.6" r="3.5" fill="#047857" stroke="#10b981" stroke-width="1.5" />
  <text x="55.0" y="344.6" fill="#64748b" font-family="monospace, sans-serif" font-size="9" font-weight="700">Genesis</text>

  <!-- Active Latest Point Marker (Clean Bullseye Rings) -->
  <circle cx="865.0" cy="127.3" r="10" fill="#10b981" fill-opacity="0.15" />
  <circle cx="865.0" cy="127.3" r="7" fill="#10b981" fill-opacity="0.35" />
  <circle cx="865.0" cy="127.3" r="4.5" fill="#10b981" stroke="#ffffff" stroke-width="2" />

  <!-- All-Time High (ATH) Milestone Pill -->
  <g transform="translate(823.0, 95.3)">
    <rect width="84" height="20" rx="10" fill="#065f46" stroke="#10b981" stroke-width="1.2" />
    <text x="42" y="13.5" fill="#a7f3d0" font-family="monospace, sans-serif" font-size="9.5" font-weight="800" text-anchor="middle">ATH: 171.00</text>
    <polygon points="42,24 38,20 46,20" fill="#10b981" />
  </g>

  <!-- Crosshair Dashed Line (Drawn from Price Point to Right Axis) -->
  <line x1="55" y1="127.3" x2="870" y2="127.3" stroke="#10b981" stroke-width="1" stroke-dasharray="3 3" opacity="0.65" />

  <!-- Pinned Active Price Tag (Right Y-Axis) -->
  <g transform="translate(871, 116.3)">
    <rect width="66" height="22" rx="4" fill="#10b981" />
    <polygon points="-5,11 0,6 0,16" fill="#10b981" />
    <text x="33" y="15" fill="#ffffff" font-family="monospace, 'SF Mono', Consolas, sans-serif" font-size="11" font-weight="800" text-anchor="middle">171.00 ▲</text>
  </g>

  <!-- TRADING LEGEND (Inline Upper Left of Chart) -->
  <g transform="translate(65, 130)">
    <line x1="0" y1="5" x2="16" y2="5" stroke="#10b981" stroke-width="2.5" />
    <text x="22" y="9" fill="#94a3b8" font-family="system-ui, sans-serif" font-size="10" font-weight="600">ZYP/GIT Price (171.00)</text>

    <line x1="150" y1="5" x2="166" y2="5" stroke="#f59e0b" stroke-width="1.8" stroke-dasharray="3 2" />
    <text x="172" y="9" fill="#94a3b8" font-family="system-ui, sans-serif" font-size="10" font-weight="600">EMA(9) Trendline</text>

    <rect x="280" y="1" width="8" height="8" rx="1.5" fill="#10b981" />
    <text x="294" y="9" fill="#94a3b8" font-family="system-ui, sans-serif" font-size="10" font-weight="600">Vol: Daily Commit Bursts</text>
  </g>

  <!-- SUB-PANEL: TRADING VOLUME HISTOGRAM -->
  <line x1="55" y1="387" x2="865" y2="387" stroke="rgba(255, 255, 255, 0.08)" />
  <text x="55" y="399" fill="#64748b" font-family="monospace, sans-serif" font-size="10" font-weight="700">VOL (Commit Velocity &amp; Code Delivery)</text>
  <text x="877" y="399" fill="#64748b" font-family="monospace, sans-serif" font-size="9.5">11 max</text>
  <text x="877" y="470" fill="#475569" font-family="monospace, sans-serif" font-size="9.5">0</text>

  <!-- Volume Histogram Bars -->
  
      <rect x="48.9" y="445.6" width="12.2" height="24.4" rx="2" fill="url(#volGreenGrad)" stroke="#10b981" stroke-opacity="0.3" stroke-width="0.8" />
    
      <rect x="68.2" y="463.9" width="12.2" height="6.1" rx="2" fill="url(#volCyanGrad)" stroke="#06b6d4" stroke-opacity="0.3" stroke-width="0.8" />
    
      <rect x="87.4" y="457.8" width="12.2" height="12.2" rx="2" fill="url(#volGreenGrad)" stroke="#10b981" stroke-opacity="0.3" stroke-width="0.8" />
    
      <rect x="106.7" y="463.9" width="12.2" height="6.1" rx="2" fill="url(#volCyanGrad)" stroke="#06b6d4" stroke-opacity="0.3" stroke-width="0.8" />
    
      <rect x="126.0" y="463.9" width="12.2" height="6.1" rx="2" fill="url(#volGreenGrad)" stroke="#10b981" stroke-opacity="0.3" stroke-width="0.8" />
    
      <rect x="145.3" y="451.7" width="12.2" height="18.3" rx="2" fill="url(#volGreenGrad)" stroke="#10b981" stroke-opacity="0.3" stroke-width="0.8" />
    
      <rect x="164.6" y="463.9" width="12.2" height="6.1" rx="2" fill="url(#volCyanGrad)" stroke="#06b6d4" stroke-opacity="0.3" stroke-width="0.8" />
    
      <rect x="183.9" y="403.0" width="12.2" height="67.0" rx="2" fill="url(#volGreenGrad)" stroke="#10b981" stroke-opacity="0.3" stroke-width="0.8" />
    
      <rect x="203.2" y="463.9" width="12.2" height="6.1" rx="2" fill="url(#volCyanGrad)" stroke="#06b6d4" stroke-opacity="0.3" stroke-width="0.8" />
    
      <rect x="222.4" y="457.8" width="12.2" height="12.2" rx="2" fill="url(#volGreenGrad)" stroke="#10b981" stroke-opacity="0.3" stroke-width="0.8" />
    
      <rect x="241.7" y="445.6" width="12.2" height="24.4" rx="2" fill="url(#volGreenGrad)" stroke="#10b981" stroke-opacity="0.3" stroke-width="0.8" />
    
      <rect x="261.0" y="451.7" width="12.2" height="18.3" rx="2" fill="url(#volCyanGrad)" stroke="#06b6d4" stroke-opacity="0.3" stroke-width="0.8" />
    
      <rect x="280.3" y="463.9" width="12.2" height="6.1" rx="2" fill="url(#volCyanGrad)" stroke="#06b6d4" stroke-opacity="0.3" stroke-width="0.8" />
    
      <rect x="299.6" y="439.5" width="12.2" height="30.5" rx="2" fill="url(#volGreenGrad)" stroke="#10b981" stroke-opacity="0.3" stroke-width="0.8" />
    
      <rect x="318.9" y="463.9" width="12.2" height="6.1" rx="2" fill="url(#volCyanGrad)" stroke="#06b6d4" stroke-opacity="0.3" stroke-width="0.8" />
    
      <rect x="338.2" y="451.7" width="12.2" height="18.3" rx="2" fill="url(#volGreenGrad)" stroke="#10b981" stroke-opacity="0.3" stroke-width="0.8" />
    
      <rect x="357.4" y="463.9" width="12.2" height="6.1" rx="2" fill="url(#volCyanGrad)" stroke="#06b6d4" stroke-opacity="0.3" stroke-width="0.8" />
    
      <rect x="376.7" y="463.9" width="12.2" height="6.1" rx="2" fill="url(#volGreenGrad)" stroke="#10b981" stroke-opacity="0.3" stroke-width="0.8" />
    
      <rect x="396.0" y="457.8" width="12.2" height="12.2" rx="2" fill="url(#volGreenGrad)" stroke="#10b981" stroke-opacity="0.3" stroke-width="0.8" />
    
      <rect x="415.3" y="457.8" width="12.2" height="12.2" rx="2" fill="url(#volGreenGrad)" stroke="#10b981" stroke-opacity="0.3" stroke-width="0.8" />
    
      <rect x="434.6" y="457.8" width="12.2" height="12.2" rx="2" fill="url(#volGreenGrad)" stroke="#10b981" stroke-opacity="0.3" stroke-width="0.8" />
    
      <rect x="453.9" y="427.4" width="12.2" height="42.6" rx="2" fill="url(#volGreenGrad)" stroke="#10b981" stroke-opacity="0.3" stroke-width="0.8" />
    
      <rect x="473.2" y="427.4" width="12.2" height="42.6" rx="2" fill="url(#volGreenGrad)" stroke="#10b981" stroke-opacity="0.3" stroke-width="0.8" />
    
      <rect x="492.4" y="403.0" width="12.2" height="67.0" rx="2" fill="url(#volGreenGrad)" stroke="#10b981" stroke-opacity="0.3" stroke-width="0.8" />
    
      <rect x="511.7" y="463.9" width="12.2" height="6.1" rx="2" fill="url(#volCyanGrad)" stroke="#06b6d4" stroke-opacity="0.3" stroke-width="0.8" />
    
      <rect x="531.0" y="421.3" width="12.2" height="48.7" rx="2" fill="url(#volGreenGrad)" stroke="#10b981" stroke-opacity="0.3" stroke-width="0.8" />
    
      <rect x="550.3" y="451.7" width="12.2" height="18.3" rx="2" fill="url(#volCyanGrad)" stroke="#06b6d4" stroke-opacity="0.3" stroke-width="0.8" />
    
      <rect x="569.6" y="445.6" width="12.2" height="24.4" rx="2" fill="url(#volGreenGrad)" stroke="#10b981" stroke-opacity="0.3" stroke-width="0.8" />
    
      <rect x="588.9" y="427.4" width="12.2" height="42.6" rx="2" fill="url(#volGreenGrad)" stroke="#10b981" stroke-opacity="0.3" stroke-width="0.8" />
    
      <rect x="608.2" y="433.5" width="12.2" height="36.5" rx="2" fill="url(#volCyanGrad)" stroke="#06b6d4" stroke-opacity="0.3" stroke-width="0.8" />
    
      <rect x="627.4" y="445.6" width="12.2" height="24.4" rx="2" fill="url(#volCyanGrad)" stroke="#06b6d4" stroke-opacity="0.3" stroke-width="0.8" />
    
      <rect x="646.7" y="427.4" width="12.2" height="42.6" rx="2" fill="url(#volGreenGrad)" stroke="#10b981" stroke-opacity="0.3" stroke-width="0.8" />
    
      <rect x="666.0" y="421.3" width="12.2" height="48.7" rx="2" fill="url(#volGreenGrad)" stroke="#10b981" stroke-opacity="0.3" stroke-width="0.8" />
    
      <rect x="685.3" y="439.5" width="12.2" height="30.5" rx="2" fill="url(#volCyanGrad)" stroke="#06b6d4" stroke-opacity="0.3" stroke-width="0.8" />
    
      <rect x="704.6" y="415.2" width="12.2" height="54.8" rx="2" fill="url(#volGreenGrad)" stroke="#10b981" stroke-opacity="0.3" stroke-width="0.8" />
    
      <rect x="723.9" y="409.1" width="12.2" height="60.9" rx="2" fill="url(#volGreenGrad)" stroke="#10b981" stroke-opacity="0.3" stroke-width="0.8" />
    
      <rect x="743.2" y="457.8" width="12.2" height="12.2" rx="2" fill="url(#volCyanGrad)" stroke="#06b6d4" stroke-opacity="0.3" stroke-width="0.8" />
    
      <rect x="762.4" y="451.7" width="12.2" height="18.3" rx="2" fill="url(#volGreenGrad)" stroke="#10b981" stroke-opacity="0.3" stroke-width="0.8" />
    
      <rect x="781.7" y="457.8" width="12.2" height="12.2" rx="2" fill="url(#volCyanGrad)" stroke="#06b6d4" stroke-opacity="0.3" stroke-width="0.8" />
    
      <rect x="801.0" y="439.5" width="12.2" height="30.5" rx="2" fill="url(#volGreenGrad)" stroke="#10b981" stroke-opacity="0.3" stroke-width="0.8" />
    
      <rect x="820.3" y="463.9" width="12.2" height="6.1" rx="2" fill="url(#volCyanGrad)" stroke="#06b6d4" stroke-opacity="0.3" stroke-width="0.8" />
    
      <rect x="839.6" y="433.5" width="12.2" height="36.5" rx="2" fill="url(#volGreenGrad)" stroke="#10b981" stroke-opacity="0.3" stroke-width="0.8" />
    
      <rect x="858.9" y="451.7" width="12.2" height="18.3" rx="2" fill="url(#volCyanGrad)" stroke="#06b6d4" stroke-opacity="0.3" stroke-width="0.8" />
    

  <!-- Time Axis Labels -->
  
      <text x="55.0" y="492" fill="#64748b" font-family="monospace, sans-serif" font-size="10" text-anchor="middle">Jul 11</text>
    
      <text x="190.0" y="492" fill="#64748b" font-family="monospace, sans-serif" font-size="10" text-anchor="middle">Jul 30</text>
    
      <text x="325.0" y="492" fill="#64748b" font-family="monospace, sans-serif" font-size="10" text-anchor="middle">Aug 26</text>
    
      <text x="460.0" y="492" fill="#64748b" font-family="monospace, sans-serif" font-size="10" text-anchor="middle">Sep 07</text>
    
      <text x="595.0" y="492" fill="#64748b" font-family="monospace, sans-serif" font-size="10" text-anchor="middle">Sep 14</text>
    
      <text x="730.0" y="492" fill="#64748b" font-family="monospace, sans-serif" font-size="10" text-anchor="middle">Sep 21</text>
    
      <text x="865.0" y="492" fill="#64748b" font-family="monospace, sans-serif" font-size="10" text-anchor="middle">Sep 28</text>
    
    <text x="865.0" y="492" fill="#38bdf8" font-family="monospace, sans-serif" font-size="10" font-weight="700" text-anchor="end">Sep 28 (Today)</text>
  

  <!-- FOOTER TRADING STATUS BAR -->
  <line x1="45" y1="508" x2="915" y2="508" stroke="rgba(255, 255, 255, 0.08)" />
  
  <g transform="translate(45, 524)">
    <circle cx="4" cy="-3" r="3" fill="#10b981" />
    <text x="14" y="0" fill="#94a3b8" font-family="system-ui, sans-serif" font-size="10.5">
      <tspan font-weight="700" fill="#cbd5e1">ORDER TYPE:</tspan> Continuous Integration &bull; 
      <tspan font-weight="700" fill="#cbd5e1">LATEST HASH:</tspan> <tspan font-family="monospace" fill="#38bdf8">a26222d</tspan> &bull; 
      <tspan font-weight="700" fill="#cbd5e1">MSG:</tspan> chore(graph): auto-update github commi...
    </text>

    <!-- Right Brand Badge -->
    <text x="875" y="0" fill="#38bdf8" font-family="system-ui, sans-serif" font-size="10.5" font-weight="700" text-anchor="end">github.com/daniyal44/Zyphuel</text>
  </g>
</svg>