<svg width="960" height="540" viewBox="0 0 960 540" fill="none" xmlns="http://www.w3.org/2000/svg">
  <defs>
    <!-- Trading Background Gradient -->
    <linearGradient id="tradingBg" x1="0%" y1="0%" x2="100%" y2="100%">
      <stop offset="0%" stop-color="#070a12" />
      <stop offset="50%" stop-color="#0b0f19" />
      <stop offset="100%" stop-color="#080c14" />
    </linearGradient>

    <!-- Glowing Emerald Area Gradient -->
    <linearGradient id="tradingAreaGrad" x1="0%" y1="0%" x2="0%" y2="100%">
      <stop offset="0%" stop-color="#10b981" stop-opacity="0.35" />
      <stop offset="40%" stop-color="#059669" stop-opacity="0.12" />
      <stop offset="90%" stop-color="#047857" stop-opacity="0.02" />
      <stop offset="100%" stop-color="#022c22" stop-opacity="0.0" />
    </linearGradient>

    <!-- Volume Bar Gradients -->
    <linearGradient id="volGreenGrad" x1="0%" y1="0%" x2="0%" y2="100%">
      <stop offset="0%" stop-color="#10b981" stop-opacity="0.85" />
      <stop offset="100%" stop-color="#059669" stop-opacity="0.25" />
    </linearGradient>
    <linearGradient id="volCyanGrad" x1="0%" y1="0%" x2="0%" y2="100%">
      <stop offset="0%" stop-color="#06b6d4" stop-opacity="0.85" />
      <stop offset="100%" stop-color="#0284c7" stop-opacity="0.2" />
    </linearGradient>
  </defs>

  <!-- TERMINAL FRAME BACKGROUND -->
  <rect width="960" height="540" rx="12" fill="url(#tradingBg)" stroke="#1e293b" stroke-width="1.2" />

  <!-- BACKGROUND WATERMARK -->
  <text x="480" y="280" fill="#ffffff" fill-opacity="0.02" font-family="system-ui, -apple-system, sans-serif" font-size="96" font-weight="900" text-anchor="middle" letter-spacing="12">ZYPHUEL</text>
  <text x="480" y="325" fill="#ffffff" fill-opacity="0.015" font-family="monospace, sans-serif" font-size="20" font-weight="700" text-anchor="middle" letter-spacing="8">GIT REPOSITORY INDEX</text>

  <!-- TOP TRADING TICKER HEADER -->
  <g transform="translate(45, 20)">
    <!-- Ticker Symbol & Exchange Identity -->
    <g transform="translate(0, 0)">
      <rect width="28" height="28" rx="6" fill="rgba(16, 185, 129, 0.15)" stroke="rgba(16, 185, 129, 0.35)" stroke-width="1" />
      <text x="14" y="19" fill="#10b981" font-family="system-ui, sans-serif" font-size="14" font-weight="900" text-anchor="middle">⚡</text>
      
      <text x="38" y="14" fill="#f8fafc" font-family="system-ui, -apple-system, sans-serif" font-size="16" font-weight="800" letter-spacing="0.5">ZYP / GIT</text>
      <text x="115" y="14" fill="#64748b" font-family="system-ui, sans-serif" font-size="12" font-weight="600">• GITHUB MAINNET</text>
      <text x="38" y="27" fill="#94a3b8" font-family="system-ui, sans-serif" font-size="10.5">Zyphuel Engineering Velocity • Verified Commit Stream</text>
    </g>

    <!-- Big Price Level & 24H Return -->
    <g transform="translate(360, 0)">
      <text x="0" y="22" fill="#ffffff" font-family="monospace, 'SF Mono', Consolas, sans-serif" font-size="26" font-weight="800">130.00</text>
      <text x="110" y="22" fill="#64748b" font-family="monospace, sans-serif" font-size="13" font-weight="500">COMMITS</text>
      
      <!-- Bullish Change Badge -->
      <rect x="185" y="3" width="135" height="24" rx="12" fill="rgba(16, 185, 129, 0.16)" stroke="rgba(16, 185, 129, 0.4)" stroke-width="1" />
      <text x="252" y="19" fill="#34d399" font-family="system-ui, monospace, sans-serif" font-size="11.5" font-weight="800" text-anchor="middle">▲ +4.0% (24H)</text>
    </g>

    <!-- Timeframe Chips & Live Status -->
    <g transform="translate(735, 2)">
      <!-- Interval selector pills -->
      <rect x="0" y="0" width="28" height="22" rx="4" fill="rgba(255,255,255,0.04)" />
      <text x="14" y="15" fill="#64748b" font-family="monospace, sans-serif" font-size="10" font-weight="700" text-anchor="middle">1D</text>

      <rect x="32" y="0" width="28" height="22" rx="4" fill="rgba(255,255,255,0.04)" />
      <text x="46" y="15" fill="#64748b" font-family="monospace, sans-serif" font-size="10" font-weight="700" text-anchor="middle">1W</text>

      <rect x="64" y="0" width="28" height="22" rx="4" fill="rgba(255,255,255,0.04)" />
      <text x="78" y="15" fill="#64748b" font-family="monospace, sans-serif" font-size="10" font-weight="700" text-anchor="middle">1M</text>

      <rect x="96" y="0" width="28" height="22" rx="4" fill="rgba(255,255,255,0.04)" />
      <text x="110" y="15" fill="#64748b" font-family="monospace, sans-serif" font-size="10" font-weight="700" text-anchor="middle">1Y</text>

      <!-- Active ALL Pill -->
      <rect x="128" y="0" width="38" height="22" rx="4" fill="#10b981" />
      <text x="147" y="15" fill="#ffffff" font-family="monospace, sans-serif" font-size="10" font-weight="800" text-anchor="middle">ALL</text>
    </g>
  </g>

  <!-- TRADING STATS RIBBON (OHLC + Volume + RSI + Sprints) -->
  <g transform="translate(45, 66)">
    <rect width="875" height="28" rx="6" fill="rgba(15, 23, 42, 0.65)" stroke="rgba(255,255,255,0.05)" />
    
    <text x="14" y="18" fill="#94a3b8" font-family="monospace, sans-serif" font-size="10.5">
      <tspan fill="#64748b">O: </tspan><tspan fill="#e2e8f0" font-weight="700">1.00</tspan>
      <tspan fill="#64748b">   H: </tspan><tspan fill="#34d399" font-weight="700">130.00</tspan>
      <tspan fill="#64748b">   L: </tspan><tspan fill="#f87171" font-weight="700">1.00</tspan>
      <tspan fill="#64748b">   C: </tspan><tspan fill="#34d399" font-weight="700">130.00</tspan>
      <tspan fill="#475569">   │   </tspan>
      <tspan fill="#64748b">24H VOL: </tspan><tspan fill="#38bdf8" font-weight="700">5 Commits</tspan>
      <tspan fill="#475569">   │   </tspan>
      <tspan fill="#64748b">EMA(9): </tspan><tspan fill="#fbbf24" font-weight="700">107.1</tspan>
      <tspan fill="#475569">   │   </tspan>
      <tspan fill="#64748b">RSI(14): </tspan><tspan fill="#34d399" font-weight="800">78.4 (BULLISH)</tspan>
      <tspan fill="#475569">   │   </tspan>
      <tspan fill="#64748b">APP: </tspan><tspan fill="#a78bfa" font-weight="700">v2.6.4.0.0.10</tspan>
    </text>

    <!-- Market Live Pulse -->
    <g transform="translate(770, 8)">
      <circle cx="0" cy="6" r="6.5" fill="#10b981" fill-opacity="0.25" />
      <circle cx="0" cy="6" r="3.5" fill="#10b981" />
      <text x="12" y="10" fill="#34d399" font-family="system-ui, sans-serif" font-size="10" font-weight="700">MARKET OPEN</text>
    </g>
  </g>

  <!-- MAIN TRADING CANVAS AREA -->
  <!-- Horizontal Price Gridlines & Right Scale -->
  
      <line x1="55" y1="115.0" x2="865" y2="115.0" stroke="rgba(255, 255, 255, 0.06)" stroke-dasharray="4 4" />
      <text x="877" y="118.5" fill="#64748b" font-family="monospace, 'SF Mono', Consolas, sans-serif" font-size="10" font-weight="600">140.00</text>
    
      <line x1="55" y1="150.0" x2="865" y2="150.0" stroke="rgba(255, 255, 255, 0.06)" stroke-dasharray="4 4" />
      <text x="877" y="153.5" fill="#64748b" font-family="monospace, 'SF Mono', Consolas, sans-serif" font-size="10" font-weight="600">120.00</text>
    
      <line x1="55" y1="185.0" x2="865" y2="185.0" stroke="rgba(255, 255, 255, 0.06)" stroke-dasharray="4 4" />
      <text x="877" y="188.5" fill="#64748b" font-family="monospace, 'SF Mono', Consolas, sans-serif" font-size="10" font-weight="600">100.00</text>
    
      <line x1="55" y1="220.0" x2="865" y2="220.0" stroke="rgba(255, 255, 255, 0.06)" stroke-dasharray="4 4" />
      <text x="877" y="223.5" fill="#64748b" font-family="monospace, 'SF Mono', Consolas, sans-serif" font-size="10" font-weight="600">80.00</text>
    
      <line x1="55" y1="255.0" x2="865" y2="255.0" stroke="rgba(255, 255, 255, 0.06)" stroke-dasharray="4 4" />
      <text x="877" y="258.5" fill="#64748b" font-family="monospace, 'SF Mono', Consolas, sans-serif" font-size="10" font-weight="600">60.00</text>
    
      <line x1="55" y1="290.0" x2="865" y2="290.0" stroke="rgba(255, 255, 255, 0.06)" stroke-dasharray="4 4" />
      <text x="877" y="293.5" fill="#64748b" font-family="monospace, 'SF Mono', Consolas, sans-serif" font-size="10" font-weight="600">40.00</text>
    
      <line x1="55" y1="325.0" x2="865" y2="325.0" stroke="rgba(255, 255, 255, 0.06)" stroke-dasharray="4 4" />
      <text x="877" y="328.5" fill="#64748b" font-family="monospace, 'SF Mono', Consolas, sans-serif" font-size="10" font-weight="600">20.00</text>
    
      <line x1="55" y1="360.0" x2="865" y2="360.0" stroke="rgba(255, 255, 255, 0.06)" stroke-dasharray="4 4" />
      <text x="877" y="363.5" fill="#64748b" font-family="monospace, 'SF Mono', Consolas, sans-serif" font-size="10" font-weight="600">0.00</text>
    

  <!-- Vertical Time Gridlines -->
  
      <line x1="55.0" y1="115" x2="55.0" y2="475" stroke="rgba(255, 255, 255, 0.04)" stroke-dasharray="3 4" />
    
      <line x1="177.7" y1="115" x2="177.7" y2="475" stroke="rgba(255, 255, 255, 0.04)" stroke-dasharray="3 4" />
    
      <line x1="300.5" y1="115" x2="300.5" y2="475" stroke="rgba(255, 255, 255, 0.04)" stroke-dasharray="3 4" />
    
      <line x1="423.2" y1="115" x2="423.2" y2="475" stroke="rgba(255, 255, 255, 0.04)" stroke-dasharray="3 4" />
    
      <line x1="545.9" y1="115" x2="545.9" y2="475" stroke="rgba(255, 255, 255, 0.04)" stroke-dasharray="3 4" />
    
      <line x1="668.6" y1="115" x2="668.6" y2="475" stroke="rgba(255, 255, 255, 0.04)" stroke-dasharray="3 4" />
    
      <line x1="791.4" y1="115" x2="791.4" y2="475" stroke="rgba(255, 255, 255, 0.04)" stroke-dasharray="3 4" />
    

  <!-- Area Chart Underlay Gradient -->
  <path d="M 55.0 353.0 C 59.1 352.7, 71.4 352.1, 79.5 351.3 C 87.7 350.4, 95.9 348.6, 104.1 347.8 C 112.3 346.9, 120.5 346.6, 128.6 346.0 C 136.8 345.4, 145.0 345.4, 153.2 344.3 C 161.4 343.1, 169.5 340.2, 177.7 339.0 C 185.9 337.8, 194.1 340.8, 202.3 337.3 C 210.5 333.8, 218.6 321.5, 226.8 318.0 C 235.0 314.5, 243.2 317.1, 251.4 316.3 C 259.5 315.4, 267.7 314.5, 275.9 312.8 C 284.1 311.0, 292.3 307.8, 300.5 305.8 C 308.6 303.7, 316.8 301.7, 325.0 300.5 C 333.2 299.3, 341.4 300.5, 349.5 298.8 C 357.7 297.0, 365.9 291.8, 374.1 290.0 C 382.3 288.3, 390.5 289.4, 398.6 288.3 C 406.8 287.1, 415.0 284.2, 423.2 283.0 C 431.4 281.8, 439.5 281.8, 447.7 281.3 C 455.9 280.7, 464.1 280.4, 472.3 279.5 C 480.5 278.6, 488.6 277.2, 496.8 276.0 C 505.0 274.8, 513.2 273.7, 521.4 272.5 C 529.5 271.3, 537.7 271.6, 545.9 269.0 C 554.1 266.4, 562.3 260.8, 570.5 256.8 C 578.6 252.7, 586.8 249.8, 595.0 244.5 C 603.2 239.3, 611.4 228.8, 619.5 225.3 C 627.7 221.8, 635.9 226.1, 644.1 223.5 C 652.3 220.9, 660.5 212.7, 668.6 209.5 C 676.8 206.3, 685.0 206.3, 693.2 204.3 C 701.4 202.2, 709.5 200.5, 717.7 197.3 C 725.9 194.0, 734.1 188.8, 742.3 185.0 C 750.5 181.2, 758.6 177.4, 766.8 174.5 C 775.0 171.6, 783.2 170.7, 791.4 167.5 C 799.5 164.3, 807.7 159.6, 815.9 155.3 C 824.1 150.9, 832.3 145.0, 840.5 141.3 C 848.6 137.5, 860.9 134.0, 865.0 132.5 L 865.0 360.0 L 55.0 360.0 Z" fill="url(#tradingAreaGrad)" />

  <!-- EMA 9 Moving Average Trendline (Amber) -->
  <path d="M 55.0 353.0 C 59.1 352.9, 71.4 352.9, 79.5 352.6 C 87.7 352.4, 95.9 352.0, 104.1 351.7 C 112.3 351.3, 120.5 350.9, 128.6 350.5 C 136.8 350.1, 145.0 349.8, 153.2 349.3 C 161.4 348.7, 169.5 347.9, 177.7 347.2 C 185.9 346.5, 194.1 346.5, 202.3 345.2 C 210.5 344.0, 218.6 341.5, 226.8 339.8 C 235.0 338.1, 243.2 336.6, 251.4 335.1 C 259.5 333.5, 267.7 332.2, 275.9 330.6 C 284.1 329.0, 292.3 327.3, 300.5 325.6 C 308.6 324.0, 316.8 322.2, 325.0 320.6 C 333.2 319.0, 341.4 317.8, 349.5 316.2 C 357.7 314.6, 365.9 312.6, 374.1 311.0 C 382.3 309.4, 390.5 308.0, 398.6 306.4 C 406.8 304.9, 415.0 303.2, 423.2 301.8 C 431.4 300.3, 439.5 298.9, 447.7 297.7 C 455.9 296.4, 464.1 295.2, 472.3 294.0 C 480.5 292.8, 488.6 291.6, 496.8 290.4 C 505.0 289.2, 513.2 288.0, 521.4 286.8 C 529.5 285.6, 537.7 284.7, 545.9 283.3 C 554.1 281.8, 562.3 280.0, 570.5 278.0 C 578.6 276.0, 586.8 273.9, 595.0 271.3 C 603.2 268.6, 611.4 264.9, 619.5 262.1 C 627.7 259.2, 635.9 257.1, 644.1 254.4 C 652.3 251.6, 660.5 248.2, 668.6 245.4 C 676.8 242.5, 685.0 239.9, 693.2 237.2 C 701.4 234.5, 709.5 232.0, 717.7 229.2 C 725.9 226.4, 734.1 223.3, 742.3 220.3 C 750.5 217.3, 758.6 214.2, 766.8 211.2 C 775.0 208.2, 783.2 205.5, 791.4 202.4 C 799.5 199.4, 807.7 196.3, 815.9 193.0 C 824.1 189.7, 832.3 186.0, 840.5 182.7 C 848.6 179.3, 860.9 174.3, 865.0 172.6" fill="none" stroke="#f59e0b" stroke-width="1.8" stroke-dasharray="4 3" opacity="0.85" />

  <!-- Primary Price Line (Layered Emerald Neon Vector Glow) -->
  <path d="M 55.0 353.0 C 59.1 352.7, 71.4 352.1, 79.5 351.3 C 87.7 350.4, 95.9 348.6, 104.1 347.8 C 112.3 346.9, 120.5 346.6, 128.6 346.0 C 136.8 345.4, 145.0 345.4, 153.2 344.3 C 161.4 343.1, 169.5 340.2, 177.7 339.0 C 185.9 337.8, 194.1 340.8, 202.3 337.3 C 210.5 333.8, 218.6 321.5, 226.8 318.0 C 235.0 314.5, 243.2 317.1, 251.4 316.3 C 259.5 315.4, 267.7 314.5, 275.9 312.8 C 284.1 311.0, 292.3 307.8, 300.5 305.8 C 308.6 303.7, 316.8 301.7, 325.0 300.5 C 333.2 299.3, 341.4 300.5, 349.5 298.8 C 357.7 297.0, 365.9 291.8, 374.1 290.0 C 382.3 288.3, 390.5 289.4, 398.6 288.3 C 406.8 287.1, 415.0 284.2, 423.2 283.0 C 431.4 281.8, 439.5 281.8, 447.7 281.3 C 455.9 280.7, 464.1 280.4, 472.3 279.5 C 480.5 278.6, 488.6 277.2, 496.8 276.0 C 505.0 274.8, 513.2 273.7, 521.4 272.5 C 529.5 271.3, 537.7 271.6, 545.9 269.0 C 554.1 266.4, 562.3 260.8, 570.5 256.8 C 578.6 252.7, 586.8 249.8, 595.0 244.5 C 603.2 239.3, 611.4 228.8, 619.5 225.3 C 627.7 221.8, 635.9 226.1, 644.1 223.5 C 652.3 220.9, 660.5 212.7, 668.6 209.5 C 676.8 206.3, 685.0 206.3, 693.2 204.3 C 701.4 202.2, 709.5 200.5, 717.7 197.3 C 725.9 194.0, 734.1 188.8, 742.3 185.0 C 750.5 181.2, 758.6 177.4, 766.8 174.5 C 775.0 171.6, 783.2 170.7, 791.4 167.5 C 799.5 164.3, 807.7 159.6, 815.9 155.3 C 824.1 150.9, 832.3 145.0, 840.5 141.3 C 848.6 137.5, 860.9 134.0, 865.0 132.5" fill="none" stroke="#10b981" stroke-width="6" stroke-opacity="0.2" stroke-linecap="round" stroke-linejoin="round" />
  <path d="M 55.0 353.0 C 59.1 352.7, 71.4 352.1, 79.5 351.3 C 87.7 350.4, 95.9 348.6, 104.1 347.8 C 112.3 346.9, 120.5 346.6, 128.6 346.0 C 136.8 345.4, 145.0 345.4, 153.2 344.3 C 161.4 343.1, 169.5 340.2, 177.7 339.0 C 185.9 337.8, 194.1 340.8, 202.3 337.3 C 210.5 333.8, 218.6 321.5, 226.8 318.0 C 235.0 314.5, 243.2 317.1, 251.4 316.3 C 259.5 315.4, 267.7 314.5, 275.9 312.8 C 284.1 311.0, 292.3 307.8, 300.5 305.8 C 308.6 303.7, 316.8 301.7, 325.0 300.5 C 333.2 299.3, 341.4 300.5, 349.5 298.8 C 357.7 297.0, 365.9 291.8, 374.1 290.0 C 382.3 288.3, 390.5 289.4, 398.6 288.3 C 406.8 287.1, 415.0 284.2, 423.2 283.0 C 431.4 281.8, 439.5 281.8, 447.7 281.3 C 455.9 280.7, 464.1 280.4, 472.3 279.5 C 480.5 278.6, 488.6 277.2, 496.8 276.0 C 505.0 274.8, 513.2 273.7, 521.4 272.5 C 529.5 271.3, 537.7 271.6, 545.9 269.0 C 554.1 266.4, 562.3 260.8, 570.5 256.8 C 578.6 252.7, 586.8 249.8, 595.0 244.5 C 603.2 239.3, 611.4 228.8, 619.5 225.3 C 627.7 221.8, 635.9 226.1, 644.1 223.5 C 652.3 220.9, 660.5 212.7, 668.6 209.5 C 676.8 206.3, 685.0 206.3, 693.2 204.3 C 701.4 202.2, 709.5 200.5, 717.7 197.3 C 725.9 194.0, 734.1 188.8, 742.3 185.0 C 750.5 181.2, 758.6 177.4, 766.8 174.5 C 775.0 171.6, 783.2 170.7, 791.4 167.5 C 799.5 164.3, 807.7 159.6, 815.9 155.3 C 824.1 150.9, 832.3 145.0, 840.5 141.3 C 848.6 137.5, 860.9 134.0, 865.0 132.5" fill="none" stroke="#10b981" stroke-width="4" stroke-opacity="0.4" stroke-linecap="round" stroke-linejoin="round" />
  <path d="M 55.0 353.0 C 59.1 352.7, 71.4 352.1, 79.5 351.3 C 87.7 350.4, 95.9 348.6, 104.1 347.8 C 112.3 346.9, 120.5 346.6, 128.6 346.0 C 136.8 345.4, 145.0 345.4, 153.2 344.3 C 161.4 343.1, 169.5 340.2, 177.7 339.0 C 185.9 337.8, 194.1 340.8, 202.3 337.3 C 210.5 333.8, 218.6 321.5, 226.8 318.0 C 235.0 314.5, 243.2 317.1, 251.4 316.3 C 259.5 315.4, 267.7 314.5, 275.9 312.8 C 284.1 311.0, 292.3 307.8, 300.5 305.8 C 308.6 303.7, 316.8 301.7, 325.0 300.5 C 333.2 299.3, 341.4 300.5, 349.5 298.8 C 357.7 297.0, 365.9 291.8, 374.1 290.0 C 382.3 288.3, 390.5 289.4, 398.6 288.3 C 406.8 287.1, 415.0 284.2, 423.2 283.0 C 431.4 281.8, 439.5 281.8, 447.7 281.3 C 455.9 280.7, 464.1 280.4, 472.3 279.5 C 480.5 278.6, 488.6 277.2, 496.8 276.0 C 505.0 274.8, 513.2 273.7, 521.4 272.5 C 529.5 271.3, 537.7 271.6, 545.9 269.0 C 554.1 266.4, 562.3 260.8, 570.5 256.8 C 578.6 252.7, 586.8 249.8, 595.0 244.5 C 603.2 239.3, 611.4 228.8, 619.5 225.3 C 627.7 221.8, 635.9 226.1, 644.1 223.5 C 652.3 220.9, 660.5 212.7, 668.6 209.5 C 676.8 206.3, 685.0 206.3, 693.2 204.3 C 701.4 202.2, 709.5 200.5, 717.7 197.3 C 725.9 194.0, 734.1 188.8, 742.3 185.0 C 750.5 181.2, 758.6 177.4, 766.8 174.5 C 775.0 171.6, 783.2 170.7, 791.4 167.5 C 799.5 164.3, 807.7 159.6, 815.9 155.3 C 824.1 150.9, 832.3 145.0, 840.5 141.3 C 848.6 137.5, 860.9 134.0, 865.0 132.5" fill="none" stroke="#34d399" stroke-width="2.4" stroke-linecap="round" stroke-linejoin="round" />

  <!-- Genesis Point Marker -->
  <circle cx="55.0" cy="353.0" r="3.5" fill="#047857" stroke="#10b981" stroke-width="1.5" />
  <text x="55.0" y="343.0" fill="#64748b" font-family="monospace, sans-serif" font-size="9" font-weight="700">Genesis</text>

  <!-- Active Latest Point Marker (Clean Bullseye Rings) -->
  <circle cx="865.0" cy="132.5" r="10" fill="#10b981" fill-opacity="0.15" />
  <circle cx="865.0" cy="132.5" r="7" fill="#10b981" fill-opacity="0.35" />
  <circle cx="865.0" cy="132.5" r="4.5" fill="#10b981" stroke="#ffffff" stroke-width="2" />

  <!-- All-Time High (ATH) Milestone Pill -->
  <g transform="translate(823.0, 100.5)">
    <rect width="84" height="20" rx="10" fill="#065f46" stroke="#10b981" stroke-width="1.2" />
    <text x="42" y="13.5" fill="#a7f3d0" font-family="monospace, sans-serif" font-size="9.5" font-weight="800" text-anchor="middle">ATH: 130.00</text>
    <polygon points="42,24 38,20 46,20" fill="#10b981" />
  </g>

  <!-- Crosshair Dashed Line (Drawn from Price Point to Right Axis) -->
  <line x1="55" y1="132.5" x2="870" y2="132.5" stroke="#10b981" stroke-width="1" stroke-dasharray="3 3" opacity="0.65" />

  <!-- Pinned Active Price Tag (Right Y-Axis) -->
  <g transform="translate(871, 121.5)">
    <rect width="66" height="22" rx="4" fill="#10b981" />
    <polygon points="-5,11 0,6 0,16" fill="#10b981" />
    <text x="33" y="15" fill="#ffffff" font-family="monospace, 'SF Mono', Consolas, sans-serif" font-size="11" font-weight="800" text-anchor="middle">130.00 ▲</text>
  </g>

  <!-- TRADING LEGEND (Inline Upper Left of Chart) -->
  <g transform="translate(65, 130)">
    <line x1="0" y1="5" x2="16" y2="5" stroke="#10b981" stroke-width="2.5" />
    <text x="22" y="9" fill="#94a3b8" font-family="system-ui, sans-serif" font-size="10" font-weight="600">ZYP/GIT Price (130.00)</text>

    <line x1="150" y1="5" x2="166" y2="5" stroke="#f59e0b" stroke-width="1.8" stroke-dasharray="3 2" />
    <text x="172" y="9" fill="#94a3b8" font-family="system-ui, sans-serif" font-size="10" font-weight="600">EMA(9) Trendline</text>

    <rect x="280" y="1" width="8" height="8" rx="1.5" fill="#10b981" />
    <text x="294" y="9" fill="#94a3b8" font-family="system-ui, sans-serif" font-size="10" font-weight="600">Vol: Daily Commit Bursts</text>
  </g>

  <!-- SUB-PANEL: TRADING VOLUME HISTOGRAM -->
  <line x1="55" y1="387" x2="865" y2="387" stroke="rgba(255, 255, 255, 0.08)" />
  <text x="55" y="399" fill="#64748b" font-family="monospace, sans-serif" font-size="10" font-weight="700">VOL (Commit Velocity &amp; Code Delivery)</text>
  <text x="877" y="399" fill="#64748b" font-family="monospace, sans-serif" font-size="9.5">11 max</text>
  <text x="877" y="470" fill="#475569" font-family="monospace, sans-serif" font-size="9.5">0</text>

  <!-- Volume Histogram Bars -->
  
      <rect x="47.3" y="445.6" width="15.5" height="24.4" rx="2" fill="url(#volGreenGrad)" stroke="#10b981" stroke-opacity="0.3" stroke-width="0.8" />
    
      <rect x="71.8" y="463.9" width="15.5" height="6.1" rx="2" fill="url(#volCyanGrad)" stroke="#06b6d4" stroke-opacity="0.3" stroke-width="0.8" />
    
      <rect x="96.3" y="457.8" width="15.5" height="12.2" rx="2" fill="url(#volGreenGrad)" stroke="#10b981" stroke-opacity="0.3" stroke-width="0.8" />
    
      <rect x="120.9" y="463.9" width="15.5" height="6.1" rx="2" fill="url(#volCyanGrad)" stroke="#06b6d4" stroke-opacity="0.3" stroke-width="0.8" />
    
      <rect x="145.4" y="463.9" width="15.5" height="6.1" rx="2" fill="url(#volGreenGrad)" stroke="#10b981" stroke-opacity="0.3" stroke-width="0.8" />
    
      <rect x="170.0" y="451.7" width="15.5" height="18.3" rx="2" fill="url(#volGreenGrad)" stroke="#10b981" stroke-opacity="0.3" stroke-width="0.8" />
    
      <rect x="194.5" y="463.9" width="15.5" height="6.1" rx="2" fill="url(#volCyanGrad)" stroke="#06b6d4" stroke-opacity="0.3" stroke-width="0.8" />
    
      <rect x="219.1" y="403.0" width="15.5" height="67.0" rx="2" fill="url(#volGreenGrad)" stroke="#10b981" stroke-opacity="0.3" stroke-width="0.8" />
    
      <rect x="243.6" y="463.9" width="15.5" height="6.1" rx="2" fill="url(#volCyanGrad)" stroke="#06b6d4" stroke-opacity="0.3" stroke-width="0.8" />
    
      <rect x="268.2" y="457.8" width="15.5" height="12.2" rx="2" fill="url(#volGreenGrad)" stroke="#10b981" stroke-opacity="0.3" stroke-width="0.8" />
    
      <rect x="292.7" y="445.6" width="15.5" height="24.4" rx="2" fill="url(#volGreenGrad)" stroke="#10b981" stroke-opacity="0.3" stroke-width="0.8" />
    
      <rect x="317.3" y="451.7" width="15.5" height="18.3" rx="2" fill="url(#volCyanGrad)" stroke="#06b6d4" stroke-opacity="0.3" stroke-width="0.8" />
    
      <rect x="341.8" y="463.9" width="15.5" height="6.1" rx="2" fill="url(#volCyanGrad)" stroke="#06b6d4" stroke-opacity="0.3" stroke-width="0.8" />
    
      <rect x="366.3" y="439.5" width="15.5" height="30.5" rx="2" fill="url(#volGreenGrad)" stroke="#10b981" stroke-opacity="0.3" stroke-width="0.8" />
    
      <rect x="390.9" y="463.9" width="15.5" height="6.1" rx="2" fill="url(#volCyanGrad)" stroke="#06b6d4" stroke-opacity="0.3" stroke-width="0.8" />
    
      <rect x="415.4" y="451.7" width="15.5" height="18.3" rx="2" fill="url(#volGreenGrad)" stroke="#10b981" stroke-opacity="0.3" stroke-width="0.8" />
    
      <rect x="440.0" y="463.9" width="15.5" height="6.1" rx="2" fill="url(#volCyanGrad)" stroke="#06b6d4" stroke-opacity="0.3" stroke-width="0.8" />
    
      <rect x="464.5" y="463.9" width="15.5" height="6.1" rx="2" fill="url(#volGreenGrad)" stroke="#10b981" stroke-opacity="0.3" stroke-width="0.8" />
    
      <rect x="489.1" y="457.8" width="15.5" height="12.2" rx="2" fill="url(#volGreenGrad)" stroke="#10b981" stroke-opacity="0.3" stroke-width="0.8" />
    
      <rect x="513.6" y="457.8" width="15.5" height="12.2" rx="2" fill="url(#volGreenGrad)" stroke="#10b981" stroke-opacity="0.3" stroke-width="0.8" />
    
      <rect x="538.2" y="457.8" width="15.5" height="12.2" rx="2" fill="url(#volGreenGrad)" stroke="#10b981" stroke-opacity="0.3" stroke-width="0.8" />
    
      <rect x="562.7" y="427.4" width="15.5" height="42.6" rx="2" fill="url(#volGreenGrad)" stroke="#10b981" stroke-opacity="0.3" stroke-width="0.8" />
    
      <rect x="587.3" y="427.4" width="15.5" height="42.6" rx="2" fill="url(#volGreenGrad)" stroke="#10b981" stroke-opacity="0.3" stroke-width="0.8" />
    
      <rect x="611.8" y="403.0" width="15.5" height="67.0" rx="2" fill="url(#volGreenGrad)" stroke="#10b981" stroke-opacity="0.3" stroke-width="0.8" />
    
      <rect x="636.3" y="463.9" width="15.5" height="6.1" rx="2" fill="url(#volCyanGrad)" stroke="#06b6d4" stroke-opacity="0.3" stroke-width="0.8" />
    
      <rect x="660.9" y="421.3" width="15.5" height="48.7" rx="2" fill="url(#volGreenGrad)" stroke="#10b981" stroke-opacity="0.3" stroke-width="0.8" />
    
      <rect x="685.4" y="451.7" width="15.5" height="18.3" rx="2" fill="url(#volCyanGrad)" stroke="#06b6d4" stroke-opacity="0.3" stroke-width="0.8" />
    
      <rect x="710.0" y="445.6" width="15.5" height="24.4" rx="2" fill="url(#volGreenGrad)" stroke="#10b981" stroke-opacity="0.3" stroke-width="0.8" />
    
      <rect x="734.5" y="427.4" width="15.5" height="42.6" rx="2" fill="url(#volGreenGrad)" stroke="#10b981" stroke-opacity="0.3" stroke-width="0.8" />
    
      <rect x="759.1" y="433.5" width="15.5" height="36.5" rx="2" fill="url(#volCyanGrad)" stroke="#06b6d4" stroke-opacity="0.3" stroke-width="0.8" />
    
      <rect x="783.6" y="445.6" width="15.5" height="24.4" rx="2" fill="url(#volCyanGrad)" stroke="#06b6d4" stroke-opacity="0.3" stroke-width="0.8" />
    
      <rect x="808.2" y="427.4" width="15.5" height="42.6" rx="2" fill="url(#volGreenGrad)" stroke="#10b981" stroke-opacity="0.3" stroke-width="0.8" />
    
      <rect x="832.7" y="421.3" width="15.5" height="48.7" rx="2" fill="url(#volGreenGrad)" stroke="#10b981" stroke-opacity="0.3" stroke-width="0.8" />
    
      <rect x="857.3" y="439.5" width="15.5" height="30.5" rx="2" fill="url(#volCyanGrad)" stroke="#06b6d4" stroke-opacity="0.3" stroke-width="0.8" />
    

  <!-- Time Axis Labels -->
  
      <text x="55.0" y="492" fill="#64748b" font-family="monospace, sans-serif" font-size="10" text-anchor="middle">Jul 11</text>
    
      <text x="177.7" y="492" fill="#64748b" font-family="monospace, sans-serif" font-size="10" text-anchor="middle">Jul 27</text>
    
      <text x="300.5" y="492" fill="#64748b" font-family="monospace, sans-serif" font-size="10" text-anchor="middle">Aug 04</text>
    
      <text x="423.2" y="492" fill="#64748b" font-family="monospace, sans-serif" font-size="10" text-anchor="middle">Aug 27</text>
    
      <text x="545.9" y="492" fill="#64748b" font-family="monospace, sans-serif" font-size="10" text-anchor="middle">Sep 06</text>
    
      <text x="668.6" y="492" fill="#64748b" font-family="monospace, sans-serif" font-size="10" text-anchor="middle">Sep 11</text>
    
      <text x="791.4" y="492" fill="#64748b" font-family="monospace, sans-serif" font-size="10" text-anchor="middle">Sep 16</text>
    
    <text x="865.0" y="492" fill="#38bdf8" font-family="monospace, sans-serif" font-size="10" font-weight="700" text-anchor="end">Sep 19 (Today)</text>
  

  <!-- FOOTER TRADING STATUS BAR -->
  <line x1="45" y1="508" x2="915" y2="508" stroke="rgba(255, 255, 255, 0.08)" />
  
  <g transform="translate(45, 524)">
    <circle cx="4" cy="-3" r="3" fill="#10b981" />
    <text x="14" y="0" fill="#94a3b8" font-family="system-ui, sans-serif" font-size="10.5">
      <tspan font-weight="700" fill="#cbd5e1">ORDER TYPE:</tspan> Continuous Integration &bull; 
      <tspan font-weight="700" fill="#cbd5e1">LATEST HASH:</tspan> <tspan font-family="monospace" fill="#38bdf8">d102e01</tspan> &bull; 
      <tspan font-weight="700" fill="#cbd5e1">MSG:</tspan> feat(update): automated push on Sat 09...
    </text>

    <!-- Right Brand Badge -->
    <text x="875" y="0" fill="#38bdf8" font-family="system-ui, sans-serif" font-size="10.5" font-weight="700" text-anchor="end">github.com/daniyal44/Zyphuel</text>
  </g>
</svg>