<?xml version="1.0" encoding="UTF-8"?>
<svg width="960" height="540" viewBox="0 0 960 540" fill="none" xmlns="http://www.w3.org/2000/svg" role="img" aria-label="Zyphuel Git Velocity Trading Chart">
  <defs>
    <!-- Trading Background Gradient -->
    <linearGradient id="tradingBg" x1="0%" y1="0%" x2="100%" y2="100%">
      <stop offset="0%" stop-color="#070a12" />
      <stop offset="50%" stop-color="#0b0f19" />
      <stop offset="100%" stop-color="#080c14" />
    </linearGradient>

    <!-- Glowing Emerald Area Gradient -->
    <linearGradient id="tradingAreaGrad" x1="0%" y1="0%" x2="0%" y2="100%">
      <stop offset="0%" stop-color="#10b981" stop-opacity="0.35" />
      <stop offset="40%" stop-color="#059669" stop-opacity="0.12" />
      <stop offset="90%" stop-color="#047857" stop-opacity="0.02" />
      <stop offset="100%" stop-color="#022c22" stop-opacity="0.0" />
    </linearGradient>

    <!-- Volume Bar Gradients -->
    <linearGradient id="volGreenGrad" x1="0%" y1="0%" x2="0%" y2="100%">
      <stop offset="0%" stop-color="#10b981" stop-opacity="0.85" />
      <stop offset="100%" stop-color="#059669" stop-opacity="0.25" />
    </linearGradient>
    <linearGradient id="volCyanGrad" x1="0%" y1="0%" x2="0%" y2="100%">
      <stop offset="0%" stop-color="#06b6d4" stop-opacity="0.85" />
      <stop offset="100%" stop-color="#0284c7" stop-opacity="0.2" />
    </linearGradient>
  </defs>

  <!-- TERMINAL FRAME BACKGROUND -->
  <rect width="960" height="540" rx="12" fill="url(#tradingBg)" stroke="#1e293b" stroke-width="1.2" />

  <!-- BACKGROUND WATERMARK -->
  <text x="480" y="280" fill="#ffffff" fill-opacity="0.02" font-family="system-ui, -apple-system, sans-serif" font-size="96" font-weight="900" text-anchor="middle" letter-spacing="12">ZYPHUEL</text>
  <text x="480" y="325" fill="#ffffff" fill-opacity="0.015" font-family="monospace, sans-serif" font-size="20" font-weight="700" text-anchor="middle" letter-spacing="8">GIT REPOSITORY INDEX</text>

  <!-- TOP TRADING TICKER HEADER -->
  <g transform="translate(45, 20)">
    <!-- Ticker Symbol & Exchange Identity -->
    <g transform="translate(0, 0)">
      <rect width="28" height="28" rx="6" fill="rgba(16, 185, 129, 0.15)" stroke="rgba(16, 185, 129, 0.35)" stroke-width="1" />
      <text x="14" y="19" fill="#10b981" font-family="system-ui, sans-serif" font-size="14" font-weight="900" text-anchor="middle">⚡</text>
      
      <text x="38" y="14" fill="#f8fafc" font-family="system-ui, -apple-system, sans-serif" font-size="16" font-weight="800" letter-spacing="0.5">ZYP / GIT</text>
      <text x="115" y="14" fill="#64748b" font-family="system-ui, sans-serif" font-size="12" font-weight="600">• GITHUB MAINNET</text>
      <text x="38" y="27" fill="#94a3b8" font-family="system-ui, sans-serif" font-size="10.5">Zyphuel Engineering Velocity • Verified Commit Stream</text>
    </g>

    <!-- Big Price Level & 24H Return -->
    <g transform="translate(360, 0)">
      <text x="0" y="22" fill="#ffffff" font-family="monospace, 'SF Mono', Consolas, sans-serif" font-size="26" font-weight="800">151.00</text>
      <text x="110" y="22" fill="#64748b" font-family="monospace, sans-serif" font-size="13" font-weight="500">COMMITS</text>
      
      <!-- Bullish Change Badge -->
      <rect x="185" y="3" width="135" height="24" rx="12" fill="rgba(16, 185, 129, 0.16)" stroke="rgba(16, 185, 129, 0.4)" stroke-width="1" />
      <text x="252" y="19" fill="#34d399" font-family="system-ui, monospace, sans-serif" font-size="11.5" font-weight="800" text-anchor="middle">▲ +1.3% (24H)</text>
    </g>

    <!-- Timeframe Chips & Live Status -->
    <g transform="translate(735, 2)">
      <!-- Interval selector pills -->
      <rect x="0" y="0" width="28" height="22" rx="4" fill="rgba(255,255,255,0.04)" />
      <text x="14" y="15" fill="#64748b" font-family="monospace, sans-serif" font-size="10" font-weight="700" text-anchor="middle">1D</text>

      <rect x="32" y="0" width="28" height="22" rx="4" fill="rgba(255,255,255,0.04)" />
      <text x="46" y="15" fill="#64748b" font-family="monospace, sans-serif" font-size="10" font-weight="700" text-anchor="middle">1W</text>

      <rect x="64" y="0" width="28" height="22" rx="4" fill="rgba(255,255,255,0.04)" />
      <text x="78" y="15" fill="#64748b" font-family="monospace, sans-serif" font-size="10" font-weight="700" text-anchor="middle">1M</text>

      <rect x="96" y="0" width="28" height="22" rx="4" fill="rgba(255,255,255,0.04)" />
      <text x="110" y="15" fill="#64748b" font-family="monospace, sans-serif" font-size="10" font-weight="700" text-anchor="middle">1Y</text>

      <!-- Active ALL Pill -->
      <rect x="128" y="0" width="38" height="22" rx="4" fill="#10b981" />
      <text x="147" y="15" fill="#ffffff" font-family="monospace, sans-serif" font-size="10" font-weight="800" text-anchor="middle">ALL</text>
    </g>
  </g>

  <!-- TRADING STATS RIBBON (OHLC + Volume + RSI + Sprints) -->
  <g transform="translate(45, 66)">
    <rect width="875" height="28" rx="6" fill="rgba(15, 23, 42, 0.65)" stroke="rgba(255,255,255,0.05)" />
    
    <text x="14" y="18" fill="#94a3b8" font-family="monospace, sans-serif" font-size="10.5">
      <tspan fill="#64748b">O: </tspan><tspan fill="#e2e8f0" font-weight="700">1.00</tspan>
      <tspan fill="#64748b">   H: </tspan><tspan fill="#34d399" font-weight="700">151.00</tspan>
      <tspan fill="#64748b">   L: </tspan><tspan fill="#f87171" font-weight="700">1.00</tspan>
      <tspan fill="#64748b">   C: </tspan><tspan fill="#34d399" font-weight="700">151.00</tspan>
      <tspan fill="#475569">   │   </tspan>
      <tspan fill="#64748b">24H VOL: </tspan><tspan fill="#38bdf8" font-weight="700">2 Commits</tspan>
      <tspan fill="#475569">   │   </tspan>
      <tspan fill="#64748b">EMA(9): </tspan><tspan fill="#fbbf24" font-weight="700">126.7</tspan>
      <tspan fill="#475569">   │   </tspan>
      <tspan fill="#64748b">RSI(14): </tspan><tspan fill="#34d399" font-weight="800">78.4 (BULLISH)</tspan>
      <tspan fill="#475569">   │   </tspan>
      <tspan fill="#64748b">APP: </tspan><tspan fill="#a78bfa" font-weight="700">v2.6.4.0.0.16</tspan>
    </text>

    <!-- Market Live Pulse -->
    <g transform="translate(770, 8)">
      <circle cx="0" cy="6" r="6.5" fill="#10b981" fill-opacity="0.25" />
      <circle cx="0" cy="6" r="3.5" fill="#10b981" />
      <text x="12" y="10" fill="#34d399" font-family="system-ui, sans-serif" font-size="10" font-weight="700">MARKET OPEN</text>
    </g>
  </g>

  <!-- MAIN TRADING CANVAS AREA -->
  <!-- Horizontal Price Gridlines & Right Scale -->
  
      <line x1="55" y1="115.0" x2="865" y2="115.0" stroke="rgba(255, 255, 255, 0.06)" stroke-dasharray="4 4" />
      <text x="877" y="118.5" fill="#64748b" font-family="monospace, 'SF Mono', Consolas, sans-serif" font-size="10" font-weight="600">160.00</text>
    
      <line x1="55" y1="145.6" x2="865" y2="145.6" stroke="rgba(255, 255, 255, 0.06)" stroke-dasharray="4 4" />
      <text x="877" y="149.1" fill="#64748b" font-family="monospace, 'SF Mono', Consolas, sans-serif" font-size="10" font-weight="600">140.00</text>
    
      <line x1="55" y1="176.3" x2="865" y2="176.3" stroke="rgba(255, 255, 255, 0.06)" stroke-dasharray="4 4" />
      <text x="877" y="179.8" fill="#64748b" font-family="monospace, 'SF Mono', Consolas, sans-serif" font-size="10" font-weight="600">120.00</text>
    
      <line x1="55" y1="206.9" x2="865" y2="206.9" stroke="rgba(255, 255, 255, 0.06)" stroke-dasharray="4 4" />
      <text x="877" y="210.4" fill="#64748b" font-family="monospace, 'SF Mono', Consolas, sans-serif" font-size="10" font-weight="600">100.00</text>
    
      <line x1="55" y1="237.5" x2="865" y2="237.5" stroke="rgba(255, 255, 255, 0.06)" stroke-dasharray="4 4" />
      <text x="877" y="241.0" fill="#64748b" font-family="monospace, 'SF Mono', Consolas, sans-serif" font-size="10" font-weight="600">80.00</text>
    
      <line x1="55" y1="268.1" x2="865" y2="268.1" stroke="rgba(255, 255, 255, 0.06)" stroke-dasharray="4 4" />
      <text x="877" y="271.6" fill="#64748b" font-family="monospace, 'SF Mono', Consolas, sans-serif" font-size="10" font-weight="600">60.00</text>
    
      <line x1="55" y1="298.8" x2="865" y2="298.8" stroke="rgba(255, 255, 255, 0.06)" stroke-dasharray="4 4" />
      <text x="877" y="302.3" fill="#64748b" font-family="monospace, 'SF Mono', Consolas, sans-serif" font-size="10" font-weight="600">40.00</text>
    
      <line x1="55" y1="329.4" x2="865" y2="329.4" stroke="rgba(255, 255, 255, 0.06)" stroke-dasharray="4 4" />
      <text x="877" y="332.9" fill="#64748b" font-family="monospace, 'SF Mono', Consolas, sans-serif" font-size="10" font-weight="600">20.00</text>
    
      <line x1="55" y1="360.0" x2="865" y2="360.0" stroke="rgba(255, 255, 255, 0.06)" stroke-dasharray="4 4" />
      <text x="877" y="363.5" fill="#64748b" font-family="monospace, 'SF Mono', Consolas, sans-serif" font-size="10" font-weight="600">0.00</text>
    

  <!-- Vertical Time Gridlines -->
  
      <line x1="55.0" y1="115" x2="55.0" y2="475" stroke="rgba(255, 255, 255, 0.04)" stroke-dasharray="3 4" />
    
      <line x1="190.0" y1="115" x2="190.0" y2="475" stroke="rgba(255, 255, 255, 0.04)" stroke-dasharray="3 4" />
    
      <line x1="325.0" y1="115" x2="325.0" y2="475" stroke="rgba(255, 255, 255, 0.04)" stroke-dasharray="3 4" />
    
      <line x1="460.0" y1="115" x2="460.0" y2="475" stroke="rgba(255, 255, 255, 0.04)" stroke-dasharray="3 4" />
    
      <line x1="595.0" y1="115" x2="595.0" y2="475" stroke="rgba(255, 255, 255, 0.04)" stroke-dasharray="3 4" />
    
      <line x1="730.0" y1="115" x2="730.0" y2="475" stroke="rgba(255, 255, 255, 0.04)" stroke-dasharray="3 4" />
    
      <line x1="865.0" y1="115" x2="865.0" y2="475" stroke="rgba(255, 255, 255, 0.04)" stroke-dasharray="3 4" />
    

  <!-- Area Chart Underlay Gradient -->
  <path d="M 55.0 353.9 C 58.8 353.6, 70.0 353.1, 77.5 352.3 C 85.0 351.6, 92.5 350.0, 100.0 349.3 C 107.5 348.5, 115.0 348.3, 122.5 347.8 C 130.0 347.2, 137.5 347.2, 145.0 346.2 C 152.5 345.2, 160.0 342.6, 167.5 341.6 C 175.0 340.6, 182.5 343.2, 190.0 340.1 C 197.5 337.0, 205.0 326.3, 212.5 323.3 C 220.0 320.2, 227.5 322.5, 235.0 321.7 C 242.5 321.0, 250.0 320.2, 257.5 318.7 C 265.0 317.1, 272.5 314.3, 280.0 312.5 C 287.5 310.7, 295.0 309.0, 302.5 307.9 C 310.0 306.9, 317.5 307.9, 325.0 306.4 C 332.5 304.9, 340.0 300.3, 347.5 298.8 C 355.0 297.2, 362.5 298.2, 370.0 297.2 C 377.5 296.2, 385.0 293.6, 392.5 292.6 C 400.0 291.6, 407.5 291.6, 415.0 291.1 C 422.5 290.6, 430.0 290.3, 437.5 289.6 C 445.0 288.8, 452.5 287.5, 460.0 286.5 C 467.5 285.5, 475.0 284.5, 482.5 283.4 C 490.0 282.4, 497.5 282.7, 505.0 280.4 C 512.5 278.1, 520.0 273.2, 527.5 269.7 C 535.0 266.1, 542.5 263.5, 550.0 258.9 C 557.5 254.3, 565.0 245.2, 572.5 242.1 C 580.0 239.0, 587.5 242.9, 595.0 240.6 C 602.5 238.3, 610.0 231.1, 617.5 228.3 C 625.0 225.5, 632.5 225.5, 640.0 223.7 C 647.5 221.9, 655.0 220.4, 662.5 217.6 C 670.0 214.8, 677.5 210.2, 685.0 206.9 C 692.5 203.6, 700.0 200.2, 707.5 197.7 C 715.0 195.1, 722.5 194.4, 730.0 191.6 C 737.5 188.8, 745.0 184.7, 752.5 180.8 C 760.0 177.0, 767.5 171.9, 775.0 168.6 C 782.5 165.3, 790.0 164.5, 797.5 160.9 C 805.0 157.4, 812.5 152.0, 820.0 147.2 C 827.5 142.3, 835.0 134.9, 842.5 131.8 C 850.0 128.8, 861.3 129.3, 865.0 128.8 L 865.0 360.0 L 55.0 360.0 Z" fill="url(#tradingAreaGrad)" />

  <!-- EMA 9 Moving Average Trendline (Amber) -->
  <path d="M 55.0 353.9 C 58.8 353.8, 70.0 353.8, 77.5 353.6 C 85.0 353.4, 92.5 353.0, 100.0 352.7 C 107.5 352.4, 115.0 352.1, 122.5 351.7 C 130.0 351.4, 137.5 351.1, 145.0 350.6 C 152.5 350.1, 160.0 349.4, 167.5 348.8 C 175.0 348.2, 182.5 348.2, 190.0 347.1 C 197.5 346.0, 205.0 343.8, 212.5 342.3 C 220.0 340.8, 227.5 339.5, 235.0 338.2 C 242.5 336.9, 250.0 335.7, 257.5 334.3 C 265.0 332.9, 272.5 331.4, 280.0 329.9 C 287.5 328.5, 295.0 326.9, 302.5 325.5 C 310.0 324.2, 317.5 323.1, 325.0 321.7 C 332.5 320.3, 340.0 318.5, 347.5 317.1 C 355.0 315.7, 362.5 314.5, 370.0 313.1 C 377.5 311.8, 385.0 310.3, 392.5 309.0 C 400.0 307.8, 407.5 306.6, 415.0 305.4 C 422.5 304.3, 430.0 303.3, 437.5 302.3 C 445.0 301.2, 452.5 300.2, 460.0 299.1 C 467.5 298.1, 475.0 297.0, 482.5 296.0 C 490.0 294.9, 497.5 294.2, 505.0 292.9 C 512.5 291.6, 520.0 290.0, 527.5 288.2 C 535.0 286.5, 542.5 284.7, 550.0 282.4 C 557.5 280.0, 565.0 276.8, 572.5 274.3 C 580.0 271.8, 587.5 270.0, 595.0 267.6 C 602.5 265.1, 610.0 262.2, 617.5 259.7 C 625.0 257.2, 632.5 254.9, 640.0 252.5 C 647.5 250.1, 655.0 248.0, 662.5 245.5 C 670.0 243.1, 677.5 240.4, 685.0 237.8 C 692.5 235.2, 700.0 232.4, 707.5 229.8 C 715.0 227.2, 722.5 224.8, 730.0 222.1 C 737.5 219.5, 745.0 216.8, 752.5 213.9 C 760.0 211.0, 767.5 207.8, 775.0 204.8 C 782.5 201.8, 790.0 199.1, 797.5 196.0 C 805.0 193.0, 812.5 189.7, 820.0 186.3 C 827.5 182.8, 835.0 178.7, 842.5 175.4 C 850.0 172.0, 861.3 167.6, 865.0 166.1" fill="none" stroke="#f59e0b" stroke-width="1.8" stroke-dasharray="4 3" opacity="0.85" />

  <!-- Primary Price Line (Layered Emerald Neon Vector Glow) -->
  <path d="M 55.0 353.9 C 58.8 353.6, 70.0 353.1, 77.5 352.3 C 85.0 351.6, 92.5 350.0, 100.0 349.3 C 107.5 348.5, 115.0 348.3, 122.5 347.8 C 130.0 347.2, 137.5 347.2, 145.0 346.2 C 152.5 345.2, 160.0 342.6, 167.5 341.6 C 175.0 340.6, 182.5 343.2, 190.0 340.1 C 197.5 337.0, 205.0 326.3, 212.5 323.3 C 220.0 320.2, 227.5 322.5, 235.0 321.7 C 242.5 321.0, 250.0 320.2, 257.5 318.7 C 265.0 317.1, 272.5 314.3, 280.0 312.5 C 287.5 310.7, 295.0 309.0, 302.5 307.9 C 310.0 306.9, 317.5 307.9, 325.0 306.4 C 332.5 304.9, 340.0 300.3, 347.5 298.8 C 355.0 297.2, 362.5 298.2, 370.0 297.2 C 377.5 296.2, 385.0 293.6, 392.5 292.6 C 400.0 291.6, 407.5 291.6, 415.0 291.1 C 422.5 290.6, 430.0 290.3, 437.5 289.6 C 445.0 288.8, 452.5 287.5, 460.0 286.5 C 467.5 285.5, 475.0 284.5, 482.5 283.4 C 490.0 282.4, 497.5 282.7, 505.0 280.4 C 512.5 278.1, 520.0 273.2, 527.5 269.7 C 535.0 266.1, 542.5 263.5, 550.0 258.9 C 557.5 254.3, 565.0 245.2, 572.5 242.1 C 580.0 239.0, 587.5 242.9, 595.0 240.6 C 602.5 238.3, 610.0 231.1, 617.5 228.3 C 625.0 225.5, 632.5 225.5, 640.0 223.7 C 647.5 221.9, 655.0 220.4, 662.5 217.6 C 670.0 214.8, 677.5 210.2, 685.0 206.9 C 692.5 203.6, 700.0 200.2, 707.5 197.7 C 715.0 195.1, 722.5 194.4, 730.0 191.6 C 737.5 188.8, 745.0 184.7, 752.5 180.8 C 760.0 177.0, 767.5 171.9, 775.0 168.6 C 782.5 165.3, 790.0 164.5, 797.5 160.9 C 805.0 157.4, 812.5 152.0, 820.0 147.2 C 827.5 142.3, 835.0 134.9, 842.5 131.8 C 850.0 128.8, 861.3 129.3, 865.0 128.8" fill="none" stroke="#10b981" stroke-width="6" stroke-opacity="0.2" stroke-linecap="round" stroke-linejoin="round" />
  <path d="M 55.0 353.9 C 58.8 353.6, 70.0 353.1, 77.5 352.3 C 85.0 351.6, 92.5 350.0, 100.0 349.3 C 107.5 348.5, 115.0 348.3, 122.5 347.8 C 130.0 347.2, 137.5 347.2, 145.0 346.2 C 152.5 345.2, 160.0 342.6, 167.5 341.6 C 175.0 340.6, 182.5 343.2, 190.0 340.1 C 197.5 337.0, 205.0 326.3, 212.5 323.3 C 220.0 320.2, 227.5 322.5, 235.0 321.7 C 242.5 321.0, 250.0 320.2, 257.5 318.7 C 265.0 317.1, 272.5 314.3, 280.0 312.5 C 287.5 310.7, 295.0 309.0, 302.5 307.9 C 310.0 306.9, 317.5 307.9, 325.0 306.4 C 332.5 304.9, 340.0 300.3, 347.5 298.8 C 355.0 297.2, 362.5 298.2, 370.0 297.2 C 377.5 296.2, 385.0 293.6, 392.5 292.6 C 400.0 291.6, 407.5 291.6, 415.0 291.1 C 422.5 290.6, 430.0 290.3, 437.5 289.6 C 445.0 288.8, 452.5 287.5, 460.0 286.5 C 467.5 285.5, 475.0 284.5, 482.5 283.4 C 490.0 282.4, 497.5 282.7, 505.0 280.4 C 512.5 278.1, 520.0 273.2, 527.5 269.7 C 535.0 266.1, 542.5 263.5, 550.0 258.9 C 557.5 254.3, 565.0 245.2, 572.5 242.1 C 580.0 239.0, 587.5 242.9, 595.0 240.6 C 602.5 238.3, 610.0 231.1, 617.5 228.3 C 625.0 225.5, 632.5 225.5, 640.0 223.7 C 647.5 221.9, 655.0 220.4, 662.5 217.6 C 670.0 214.8, 677.5 210.2, 685.0 206.9 C 692.5 203.6, 700.0 200.2, 707.5 197.7 C 715.0 195.1, 722.5 194.4, 730.0 191.6 C 737.5 188.8, 745.0 184.7, 752.5 180.8 C 760.0 177.0, 767.5 171.9, 775.0 168.6 C 782.5 165.3, 790.0 164.5, 797.5 160.9 C 805.0 157.4, 812.5 152.0, 820.0 147.2 C 827.5 142.3, 835.0 134.9, 842.5 131.8 C 850.0 128.8, 861.3 129.3, 865.0 128.8" fill="none" stroke="#10b981" stroke-width="4" stroke-opacity="0.4" stroke-linecap="round" stroke-linejoin="round" />
  <path d="M 55.0 353.9 C 58.8 353.6, 70.0 353.1, 77.5 352.3 C 85.0 351.6, 92.5 350.0, 100.0 349.3 C 107.5 348.5, 115.0 348.3, 122.5 347.8 C 130.0 347.2, 137.5 347.2, 145.0 346.2 C 152.5 345.2, 160.0 342.6, 167.5 341.6 C 175.0 340.6, 182.5 343.2, 190.0 340.1 C 197.5 337.0, 205.0 326.3, 212.5 323.3 C 220.0 320.2, 227.5 322.5, 235.0 321.7 C 242.5 321.0, 250.0 320.2, 257.5 318.7 C 265.0 317.1, 272.5 314.3, 280.0 312.5 C 287.5 310.7, 295.0 309.0, 302.5 307.9 C 310.0 306.9, 317.5 307.9, 325.0 306.4 C 332.5 304.9, 340.0 300.3, 347.5 298.8 C 355.0 297.2, 362.5 298.2, 370.0 297.2 C 377.5 296.2, 385.0 293.6, 392.5 292.6 C 400.0 291.6, 407.5 291.6, 415.0 291.1 C 422.5 290.6, 430.0 290.3, 437.5 289.6 C 445.0 288.8, 452.5 287.5, 460.0 286.5 C 467.5 285.5, 475.0 284.5, 482.5 283.4 C 490.0 282.4, 497.5 282.7, 505.0 280.4 C 512.5 278.1, 520.0 273.2, 527.5 269.7 C 535.0 266.1, 542.5 263.5, 550.0 258.9 C 557.5 254.3, 565.0 245.2, 572.5 242.1 C 580.0 239.0, 587.5 242.9, 595.0 240.6 C 602.5 238.3, 610.0 231.1, 617.5 228.3 C 625.0 225.5, 632.5 225.5, 640.0 223.7 C 647.5 221.9, 655.0 220.4, 662.5 217.6 C 670.0 214.8, 677.5 210.2, 685.0 206.9 C 692.5 203.6, 700.0 200.2, 707.5 197.7 C 715.0 195.1, 722.5 194.4, 730.0 191.6 C 737.5 188.8, 745.0 184.7, 752.5 180.8 C 760.0 177.0, 767.5 171.9, 775.0 168.6 C 782.5 165.3, 790.0 164.5, 797.5 160.9 C 805.0 157.4, 812.5 152.0, 820.0 147.2 C 827.5 142.3, 835.0 134.9, 842.5 131.8 C 850.0 128.8, 861.3 129.3, 865.0 128.8" fill="none" stroke="#34d399" stroke-width="2.4" stroke-linecap="round" stroke-linejoin="round" />

  <!-- Genesis Point Marker -->
  <circle cx="55.0" cy="353.9" r="3.5" fill="#047857" stroke="#10b981" stroke-width="1.5" />
  <text x="55.0" y="343.9" fill="#64748b" font-family="monospace, sans-serif" font-size="9" font-weight="700">Genesis</text>

  <!-- Active Latest Point Marker (Clean Bullseye Rings) -->
  <circle cx="865.0" cy="128.8" r="10" fill="#10b981" fill-opacity="0.15" />
  <circle cx="865.0" cy="128.8" r="7" fill="#10b981" fill-opacity="0.35" />
  <circle cx="865.0" cy="128.8" r="4.5" fill="#10b981" stroke="#ffffff" stroke-width="2" />

  <!-- All-Time High (ATH) Milestone Pill -->
  <g transform="translate(823.0, 96.8)">
    <rect width="84" height="20" rx="10" fill="#065f46" stroke="#10b981" stroke-width="1.2" />
    <text x="42" y="13.5" fill="#a7f3d0" font-family="monospace, sans-serif" font-size="9.5" font-weight="800" text-anchor="middle">ATH: 151.00</text>
    <polygon points="42,24 38,20 46,20" fill="#10b981" />
  </g>

  <!-- Crosshair Dashed Line (Drawn from Price Point to Right Axis) -->
  <line x1="55" y1="128.8" x2="870" y2="128.8" stroke="#10b981" stroke-width="1" stroke-dasharray="3 3" opacity="0.65" />

  <!-- Pinned Active Price Tag (Right Y-Axis) -->
  <g transform="translate(871, 117.8)">
    <rect width="66" height="22" rx="4" fill="#10b981" />
    <polygon points="-5,11 0,6 0,16" fill="#10b981" />
    <text x="33" y="15" fill="#ffffff" font-family="monospace, 'SF Mono', Consolas, sans-serif" font-size="11" font-weight="800" text-anchor="middle">151.00 ▲</text>
  </g>

  <!-- TRADING LEGEND (Inline Upper Left of Chart) -->
  <g transform="translate(65, 130)">
    <line x1="0" y1="5" x2="16" y2="5" stroke="#10b981" stroke-width="2.5" />
    <text x="22" y="9" fill="#94a3b8" font-family="system-ui, sans-serif" font-size="10" font-weight="600">ZYP/GIT Price (151.00)</text>

    <line x1="150" y1="5" x2="166" y2="5" stroke="#f59e0b" stroke-width="1.8" stroke-dasharray="3 2" />
    <text x="172" y="9" fill="#94a3b8" font-family="system-ui, sans-serif" font-size="10" font-weight="600">EMA(9) Trendline</text>

    <rect x="280" y="1" width="8" height="8" rx="1.5" fill="#10b981" />
    <text x="294" y="9" fill="#94a3b8" font-family="system-ui, sans-serif" font-size="10" font-weight="600">Vol: Daily Commit Bursts</text>
  </g>

  <!-- SUB-PANEL: TRADING VOLUME HISTOGRAM -->
  <line x1="55" y1="387" x2="865" y2="387" stroke="rgba(255, 255, 255, 0.08)" />
  <text x="55" y="399" fill="#64748b" font-family="monospace, sans-serif" font-size="10" font-weight="700">VOL (Commit Velocity &amp; Code Delivery)</text>
  <text x="877" y="399" fill="#64748b" font-family="monospace, sans-serif" font-size="9.5">11 max</text>
  <text x="877" y="470" fill="#475569" font-family="monospace, sans-serif" font-size="9.5">0</text>

  <!-- Volume Histogram Bars -->
  
      <rect x="47.9" y="445.6" width="14.2" height="24.4" rx="2" fill="url(#volGreenGrad)" stroke="#10b981" stroke-opacity="0.3" stroke-width="0.8" />
    
      <rect x="70.4" y="463.9" width="14.2" height="6.1" rx="2" fill="url(#volCyanGrad)" stroke="#06b6d4" stroke-opacity="0.3" stroke-width="0.8" />
    
      <rect x="92.9" y="457.8" width="14.2" height="12.2" rx="2" fill="url(#volGreenGrad)" stroke="#10b981" stroke-opacity="0.3" stroke-width="0.8" />
    
      <rect x="115.4" y="463.9" width="14.2" height="6.1" rx="2" fill="url(#volCyanGrad)" stroke="#06b6d4" stroke-opacity="0.3" stroke-width="0.8" />
    
      <rect x="137.9" y="463.9" width="14.2" height="6.1" rx="2" fill="url(#volGreenGrad)" stroke="#10b981" stroke-opacity="0.3" stroke-width="0.8" />
    
      <rect x="160.4" y="451.7" width="14.2" height="18.3" rx="2" fill="url(#volGreenGrad)" stroke="#10b981" stroke-opacity="0.3" stroke-width="0.8" />
    
      <rect x="182.9" y="463.9" width="14.2" height="6.1" rx="2" fill="url(#volCyanGrad)" stroke="#06b6d4" stroke-opacity="0.3" stroke-width="0.8" />
    
      <rect x="205.4" y="403.0" width="14.2" height="67.0" rx="2" fill="url(#volGreenGrad)" stroke="#10b981" stroke-opacity="0.3" stroke-width="0.8" />
    
      <rect x="227.9" y="463.9" width="14.2" height="6.1" rx="2" fill="url(#volCyanGrad)" stroke="#06b6d4" stroke-opacity="0.3" stroke-width="0.8" />
    
      <rect x="250.4" y="457.8" width="14.2" height="12.2" rx="2" fill="url(#volGreenGrad)" stroke="#10b981" stroke-opacity="0.3" stroke-width="0.8" />
    
      <rect x="272.9" y="445.6" width="14.2" height="24.4" rx="2" fill="url(#volGreenGrad)" stroke="#10b981" stroke-opacity="0.3" stroke-width="0.8" />
    
      <rect x="295.4" y="451.7" width="14.2" height="18.3" rx="2" fill="url(#volCyanGrad)" stroke="#06b6d4" stroke-opacity="0.3" stroke-width="0.8" />
    
      <rect x="317.9" y="463.9" width="14.2" height="6.1" rx="2" fill="url(#volCyanGrad)" stroke="#06b6d4" stroke-opacity="0.3" stroke-width="0.8" />
    
      <rect x="340.4" y="439.5" width="14.2" height="30.5" rx="2" fill="url(#volGreenGrad)" stroke="#10b981" stroke-opacity="0.3" stroke-width="0.8" />
    
      <rect x="362.9" y="463.9" width="14.2" height="6.1" rx="2" fill="url(#volCyanGrad)" stroke="#06b6d4" stroke-opacity="0.3" stroke-width="0.8" />
    
      <rect x="385.4" y="451.7" width="14.2" height="18.3" rx="2" fill="url(#volGreenGrad)" stroke="#10b981" stroke-opacity="0.3" stroke-width="0.8" />
    
      <rect x="407.9" y="463.9" width="14.2" height="6.1" rx="2" fill="url(#volCyanGrad)" stroke="#06b6d4" stroke-opacity="0.3" stroke-width="0.8" />
    
      <rect x="430.4" y="463.9" width="14.2" height="6.1" rx="2" fill="url(#volGreenGrad)" stroke="#10b981" stroke-opacity="0.3" stroke-width="0.8" />
    
      <rect x="452.9" y="457.8" width="14.2" height="12.2" rx="2" fill="url(#volGreenGrad)" stroke="#10b981" stroke-opacity="0.3" stroke-width="0.8" />
    
      <rect x="475.4" y="457.8" width="14.2" height="12.2" rx="2" fill="url(#volGreenGrad)" stroke="#10b981" stroke-opacity="0.3" stroke-width="0.8" />
    
      <rect x="497.9" y="457.8" width="14.2" height="12.2" rx="2" fill="url(#volGreenGrad)" stroke="#10b981" stroke-opacity="0.3" stroke-width="0.8" />
    
      <rect x="520.4" y="427.4" width="14.2" height="42.6" rx="2" fill="url(#volGreenGrad)" stroke="#10b981" stroke-opacity="0.3" stroke-width="0.8" />
    
      <rect x="542.9" y="427.4" width="14.2" height="42.6" rx="2" fill="url(#volGreenGrad)" stroke="#10b981" stroke-opacity="0.3" stroke-width="0.8" />
    
      <rect x="565.4" y="403.0" width="14.2" height="67.0" rx="2" fill="url(#volGreenGrad)" stroke="#10b981" stroke-opacity="0.3" stroke-width="0.8" />
    
      <rect x="587.9" y="463.9" width="14.2" height="6.1" rx="2" fill="url(#volCyanGrad)" stroke="#06b6d4" stroke-opacity="0.3" stroke-width="0.8" />
    
      <rect x="610.4" y="421.3" width="14.2" height="48.7" rx="2" fill="url(#volGreenGrad)" stroke="#10b981" stroke-opacity="0.3" stroke-width="0.8" />
    
      <rect x="632.9" y="451.7" width="14.2" height="18.3" rx="2" fill="url(#volCyanGrad)" stroke="#06b6d4" stroke-opacity="0.3" stroke-width="0.8" />
    
      <rect x="655.4" y="445.6" width="14.2" height="24.4" rx="2" fill="url(#volGreenGrad)" stroke="#10b981" stroke-opacity="0.3" stroke-width="0.8" />
    
      <rect x="677.9" y="427.4" width="14.2" height="42.6" rx="2" fill="url(#volGreenGrad)" stroke="#10b981" stroke-opacity="0.3" stroke-width="0.8" />
    
      <rect x="700.4" y="433.5" width="14.2" height="36.5" rx="2" fill="url(#volCyanGrad)" stroke="#06b6d4" stroke-opacity="0.3" stroke-width="0.8" />
    
      <rect x="722.9" y="445.6" width="14.2" height="24.4" rx="2" fill="url(#volCyanGrad)" stroke="#06b6d4" stroke-opacity="0.3" stroke-width="0.8" />
    
      <rect x="745.4" y="427.4" width="14.2" height="42.6" rx="2" fill="url(#volGreenGrad)" stroke="#10b981" stroke-opacity="0.3" stroke-width="0.8" />
    
      <rect x="767.9" y="421.3" width="14.2" height="48.7" rx="2" fill="url(#volGreenGrad)" stroke="#10b981" stroke-opacity="0.3" stroke-width="0.8" />
    
      <rect x="790.4" y="439.5" width="14.2" height="30.5" rx="2" fill="url(#volCyanGrad)" stroke="#06b6d4" stroke-opacity="0.3" stroke-width="0.8" />
    
      <rect x="812.9" y="415.2" width="14.2" height="54.8" rx="2" fill="url(#volGreenGrad)" stroke="#10b981" stroke-opacity="0.3" stroke-width="0.8" />
    
      <rect x="835.4" y="409.1" width="14.2" height="60.9" rx="2" fill="url(#volGreenGrad)" stroke="#10b981" stroke-opacity="0.3" stroke-width="0.8" />
    
      <rect x="857.9" y="457.8" width="14.2" height="12.2" rx="2" fill="url(#volCyanGrad)" stroke="#06b6d4" stroke-opacity="0.3" stroke-width="0.8" />
    

  <!-- Time Axis Labels -->
  
      <text x="55.0" y="492" fill="#64748b" font-family="monospace, sans-serif" font-size="10" text-anchor="middle">Jul 11</text>
    
      <text x="190.0" y="492" fill="#64748b" font-family="monospace, sans-serif" font-size="10" text-anchor="middle">Jul 29</text>
    
      <text x="325.0" y="492" fill="#64748b" font-family="monospace, sans-serif" font-size="10" text-anchor="middle">Aug 18</text>
    
      <text x="460.0" y="492" fill="#64748b" font-family="monospace, sans-serif" font-size="10" text-anchor="middle">Sep 02</text>
    
      <text x="595.0" y="492" fill="#64748b" font-family="monospace, sans-serif" font-size="10" text-anchor="middle">Sep 10</text>
    
      <text x="730.0" y="492" fill="#64748b" font-family="monospace, sans-serif" font-size="10" text-anchor="middle">Sep 16</text>
    
      <text x="865.0" y="492" fill="#64748b" font-family="monospace, sans-serif" font-size="10" text-anchor="middle">Sep 22</text>
    
    <text x="865.0" y="492" fill="#38bdf8" font-family="monospace, sans-serif" font-size="10" font-weight="700" text-anchor="end">Sep 22 (Today)</text>
  

  <!-- FOOTER TRADING STATUS BAR -->
  <line x1="45" y1="508" x2="915" y2="508" stroke="rgba(255, 255, 255, 0.08)" />
  
  <g transform="translate(45, 524)">
    <circle cx="4" cy="-3" r="3" fill="#10b981" />
    <text x="14" y="0" fill="#94a3b8" font-family="system-ui, sans-serif" font-size="10.5">
      <tspan font-weight="700" fill="#cbd5e1">ORDER TYPE:</tspan> Continuous Integration &bull; 
      <tspan font-weight="700" fill="#cbd5e1">LATEST HASH:</tspan> <tspan font-family="monospace" fill="#38bdf8">7de9acc</tspan> &bull; 
      <tspan font-weight="700" fill="#cbd5e1">MSG:</tspan> feat(update): automated push on Tue 09...
    </text>

    <!-- Right Brand Badge -->
    <text x="875" y="0" fill="#38bdf8" font-family="system-ui, sans-serif" font-size="10.5" font-weight="700" text-anchor="end">github.com/daniyal44/Zyphuel</text>
  </g>
</svg>